<svg width="30" height="27" viewBox="0 0 30 27" fill="none" xmlns="http://www.w3.org/2000/svg">
<g clip-path="url(#clip0_858_2632)">
<path d="M26.8751 4.5H24.1667V6H26.6667V22.5H3.33338V6H5.83338V4.5H3.12505C2.93025 4.50293 2.738 4.54037 2.55927 4.61018C2.38055 4.67999 2.21886 4.78081 2.08344 4.90687C1.94801 5.03293 1.84151 5.18176 1.77001 5.34488C1.6985 5.50799 1.66341 5.68218 1.66672 5.8575V22.6425C1.66341 22.8178 1.6985 22.992 1.77001 23.1551C1.84151 23.3182 1.94801 23.4671 2.08344 23.5931C2.21886 23.7192 2.38055 23.82 2.55927 23.8898C2.738 23.9596 2.93025 23.9971 3.12505 24H26.8751C27.0699 23.9971 27.2621 23.9596 27.4408 23.8898C27.6196 23.82 27.7812 23.7192 27.9167 23.5931C28.0521 23.4671 28.1586 23.3182 28.2301 23.1551C28.3016 22.992 28.3367 22.8178 28.3334 22.6425V5.8575C28.3367 5.68218 28.3016 5.50799 28.2301 5.34488C28.1586 5.18176 28.0521 5.03293 27.9167 4.90687C27.7812 4.78081 27.6196 4.67999 27.4408 4.61018C27.2621 4.54037 27.0699 4.50293 26.8751 4.5Z" fill="#717171"/>
<path d="M6.6665 10.5H8.33317V12H6.6665V10.5Z" fill="#717171"/>
<path d="M11.6665 10.5H13.3332V12H11.6665V10.5Z" fill="#717171"/>
<path d="M16.6665 10.5H18.3332V12H16.6665V10.5Z" fill="#717171"/>
<path d="M21.6665 10.5H23.3332V12H21.6665V10.5Z" fill="#717171"/>
<path d="M6.6665 14.25H8.33317V15.75H6.6665V14.25Z" fill="#717171"/>
<path d="M11.6665 14.25H13.3332V15.75H11.6665V14.25Z" fill="#717171"/>
<path d="M16.6665 14.25H18.3332V15.75H16.6665V14.25Z" fill="#717171"/>
<path d="M21.6665 14.25H23.3332V15.75H21.6665V14.25Z" fill="#717171"/>
<path d="M6.6665 18H8.33317V19.5H6.6665V18Z" fill="#717171"/>
<path d="M11.6665 18H13.3332V19.5H11.6665V18Z" fill="#717171"/>
<path d="M16.6665 18H18.3332V19.5H16.6665V18Z" fill="#717171"/>
<path d="M21.6665 18H23.3332V19.5H21.6665V18Z" fill="#717171"/>
<path d="M8.33333 7.5C8.55435 7.5 8.76631 7.42098 8.92259 7.28033C9.07887 7.13968 9.16667 6.94891 9.16667 6.75V2.25C9.16667 2.05109 9.07887 1.86032 8.92259 1.71967C8.76631 1.57902 8.55435 1.5 8.33333 1.5C8.11232 1.5 7.90036 1.57902 7.74408 1.71967C7.5878 1.86032 7.5 2.05109 7.5 2.25V6.75C7.5 6.94891 7.5878 7.13968 7.74408 7.28033C7.90036 7.42098 8.11232 7.5 8.33333 7.5Z" fill="#717171"/>
<path d="M21.6668 7.5C21.8878 7.5 22.0998 7.42098 22.2561 7.28033C22.4124 7.13968 22.5002 6.94891 22.5002 6.75V2.25C22.5002 2.05109 22.4124 1.86032 22.2561 1.71967C22.0998 1.57902 21.8878 1.5 21.6668 1.5C21.4458 1.5 21.2339 1.57902 21.0776 1.71967C20.9213 1.86032 20.8335 2.05109 20.8335 2.25V6.75C20.8335 6.94891 20.9213 7.13968 21.0776 7.28033C21.2339 7.42098 21.4458 7.5 21.6668 7.5Z" fill="#717171"/>
<path d="M10.8335 4.5H19.1668V6H10.8335V4.5Z" fill="#717171"/>
</g>
<defs>
<clipPath id="clip0_858_2632">
<rect width="30" height="27" fill="white"/>
</clipPath>
</defs>
</svg>
