<svg width="13" height="13" viewBox="0 0 13 13" fill="none" xmlns="http://www.w3.org/2000/svg">
<path fill-rule="evenodd" clip-rule="evenodd" d="M1.07805 1.07824C1.44905 0.707238 2.05056 0.707238 2.42156 1.07824L6.4998 5.15649L10.5781 1.07824C10.9491 0.707238 11.5506 0.707238 11.9216 1.07824C12.2926 1.44923 12.2926 2.05074 11.9216 2.42174L7.84331 6.49999L11.9216 10.5782C12.2926 10.9492 12.2926 11.5507 11.9216 11.9217C11.5506 12.2927 10.9491 12.2927 10.5781 11.9217L6.4998 7.84349L2.42156 11.9217C2.05056 12.2927 1.44905 12.2927 1.07805 11.9217C0.707055 11.5507 0.707055 10.9492 1.07805 10.5782L5.1563 6.49999L1.07805 2.42174C0.707055 2.05074 0.707055 1.44923 1.07805 1.07824Z" fill="#616161"/>
</svg>
