<svg width="19" height="19" viewBox="0 0 19 19" fill="none" xmlns="http://www.w3.org/2000/svg">
<path d="M4.15625 8.90625H16.0312C16.1887 8.90625 16.3397 8.96881 16.4511 9.08016C16.5624 9.19151 16.625 9.34253 16.625 9.5C16.625 9.65747 16.5624 9.8085 16.4511 9.91985C16.3397 10.0312 16.1887 10.0938 16.0312 10.0938H4.15625C3.99878 10.0938 3.84776 10.0312 3.73641 9.91985C3.62506 9.8085 3.5625 9.65747 3.5625 9.5C3.5625 9.34253 3.62506 9.19151 3.73641 9.08016C3.84776 8.96881 3.99878 8.90625 4.15625 8.90625Z" fill="#898989"/>
<path d="M4.40203 9.5L9.32659 14.4234C9.43808 14.5349 9.50071 14.6861 9.50071 14.8438C9.50071 15.0014 9.43808 15.1526 9.32659 15.2641C9.2151 15.3756 9.06388 15.4383 8.90621 15.4383C8.74854 15.4383 8.59733 15.3756 8.48584 15.2641L3.14209 9.92038C3.08679 9.86522 3.04292 9.7997 3.01299 9.72757C2.98306 9.65543 2.96765 9.5781 2.96765 9.5C2.96765 9.4219 2.98306 9.34457 3.01299 9.27244C3.04292 9.2003 3.08679 9.13478 3.14209 9.07963L8.48584 3.73588C8.59733 3.62439 8.74854 3.56175 8.90621 3.56175C9.06388 3.56175 9.2151 3.62439 9.32659 3.73588C9.43808 3.84737 9.50071 3.99858 9.50071 4.15625C9.50071 4.31392 9.43808 4.46514 9.32659 4.57663L4.40203 9.5Z" fill="#898989"/>
</svg>
