<svg width="26" height="26" viewBox="0 0 26 26" fill="none" xmlns="http://www.w3.org/2000/svg">
<path d="M24.875 3.66667H19.875C19.7092 3.66667 19.5503 3.73691 19.4331 3.86193C19.3158 3.98695 19.25 4.15652 19.25 4.33333C19.25 4.51015 19.3158 4.67971 19.4331 4.80474C19.5503 4.92976 19.7092 5 19.875 5H24.25V21H11.3837L13.4412 18.8053C13.5551 18.6796 13.6181 18.5112 13.6167 18.3364C13.6152 18.1616 13.5495 17.9944 13.4336 17.8708C13.3178 17.7472 13.161 17.6771 12.9971 17.6756C12.8333 17.674 12.6754 17.7412 12.5575 17.8627L9.4325 21.196C9.31533 21.321 9.24951 21.4906 9.24951 21.6673C9.24951 21.8441 9.31533 22.0137 9.4325 22.1387L12.5575 25.472C12.6154 25.5342 12.6842 25.5836 12.76 25.6173C12.8359 25.651 12.9172 25.6683 12.9994 25.6683C13.0815 25.6683 13.1629 25.651 13.2387 25.6173C13.3145 25.5836 13.3834 25.5342 13.4412 25.472C13.4995 25.4101 13.5456 25.3365 13.5771 25.2555C13.6086 25.1745 13.6249 25.0877 13.6249 25C13.6249 24.9123 13.6086 24.8255 13.5771 24.7445C13.5456 24.6635 13.4995 24.5899 13.4412 24.528L11.385 22.3333H24.8775C25.043 22.333 25.2017 22.2626 25.3186 22.1376C25.4356 22.0126 25.5012 21.8432 25.5012 21.6667V4.33333C25.5012 4.15652 25.4354 3.98695 25.3182 3.86193C25.201 3.73691 25.0408 3.66667 24.875 3.66667ZM4.87625 21H1.75V5H14.6163L12.5575 7.19467C12.4401 7.31967 12.3741 7.48929 12.374 7.6662C12.374 7.75379 12.3901 7.84054 12.4215 7.9215C12.4528 8.00245 12.4988 8.07602 12.5569 8.138C12.6149 8.19999 12.6838 8.24917 12.7597 8.28275C12.8355 8.31633 12.9168 8.33364 12.9989 8.33371C13.1648 8.33383 13.3239 8.26367 13.4412 8.13867L16.5662 4.80534C16.6834 4.68032 16.7492 4.51078 16.7492 4.334C16.7492 4.15723 16.6834 3.98769 16.5662 3.86267L13.4412 0.529335C13.3234 0.407896 13.1655 0.3407 13.0016 0.342219C12.8378 0.343738 12.681 0.41385 12.5651 0.537456C12.4492 0.661061 12.3835 0.828269 12.3821 1.00307C12.3807 1.17786 12.4437 1.34627 12.5575 1.472L14.6163 3.66667H1.12375C0.958206 3.66702 0.799556 3.73741 0.682616 3.8624C0.565676 3.98739 0.5 4.15675 0.5 4.33333V21.6667C0.5 21.8435 0.565848 22.0131 0.683058 22.1381C0.800269 22.2631 0.95924 22.3333 1.125 22.3333H4.875C5.04076 22.3333 5.19973 22.2631 5.31694 22.1381C5.43415 22.0131 5.5 21.8435 5.5 21.6667C5.5 21.4899 5.43415 21.3203 5.31694 21.1953C5.19973 21.0702 5.04201 21 4.87625 21Z" fill="#717171"/>
</svg>
