<svg width="21" height="26" viewBox="0 0 21 26" fill="none" xmlns="http://www.w3.org/2000/svg">
<path d="M19.6 21.8947C19.6 22.9835 19.1575 24.0277 18.3698 24.7976C17.5822 25.5675 16.5139 26 15.4 26H5.6C4.48609 26 3.4178 25.5675 2.63015 24.7976C1.8425 24.0277 1.4 22.9835 1.4 21.8947V5.47368H0V1.36842H6.3L7.7 0H13.3L14.7 1.36842H21V5.47368H19.6V21.8947ZM2.8 5.47368V21.8947C2.8 22.6206 3.095 23.3167 3.6201 23.83C4.1452 24.3432 4.85739 24.6316 5.6 24.6316H15.4C16.1426 24.6316 16.8548 24.3432 17.3799 23.83C17.905 23.3167 18.2 22.6206 18.2 21.8947V5.47368H2.8ZM19.6 4.10526V2.73684H14L12.6 1.36842H8.4L7 2.73684H1.4V4.10526H19.6ZM5.6 8.21053H7V21.8947H5.6V8.21053ZM14 8.21053H15.4V21.8947H14V8.21053Z" fill="#717171"/>
</svg>
