<svg width="30" height="30" viewBox="0 0 30 30" fill="none" xmlns="http://www.w3.org/2000/svg">
<path fill-rule="evenodd" clip-rule="evenodd" d="M26.8189 6.77C26.9376 6.95026 26.9905 7.16598 26.9687 7.38073C26.9468 7.59549 26.8515 7.79612 26.6989 7.94875L15.2076 19.4387C15.0901 19.5562 14.9434 19.6404 14.7826 19.6825L9.99636 20.9325C9.83815 20.9738 9.6719 20.9729 9.5141 20.9301C9.35631 20.8872 9.21247 20.8039 9.09685 20.6883C8.98124 20.5726 8.89787 20.4288 8.85502 20.271C8.81218 20.1132 8.81135 19.947 8.85261 19.7887L10.1026 15.0037C10.1391 14.8601 10.2079 14.7267 10.3039 14.6137L21.8376 3.0875C22.0134 2.91194 22.2517 2.81332 22.5001 2.81332C22.7486 2.81332 22.9868 2.91194 23.1626 3.0875L26.6989 6.6225C26.7437 6.66751 26.7839 6.71692 26.8189 6.77ZM24.7101 7.285L22.5001 5.07625L11.8526 15.7237L11.0714 18.715L14.0626 17.9337L24.7101 7.285Z" fill="#717171"/>
<path d="M24.5514 21.45C24.8931 18.5299 25.0022 15.5873 24.8777 12.65C24.875 12.5808 24.8866 12.5118 24.9117 12.4473C24.9369 12.3827 24.9751 12.3241 25.0239 12.275L26.2539 11.045C26.2876 11.0112 26.3302 10.9878 26.3768 10.9777C26.4234 10.9675 26.4719 10.9711 26.5165 10.9878C26.5611 11.0046 26.5999 11.0339 26.6283 11.0722C26.6567 11.1105 26.6734 11.1562 26.6764 11.2037C26.9079 14.6928 26.8201 18.1957 26.4139 21.6687C26.1189 24.1962 24.0889 26.1775 21.5727 26.4587C17.2044 26.9425 12.796 26.9425 8.42769 26.4587C5.91269 26.1775 3.88144 24.1962 3.58644 21.6687C3.06819 17.238 3.06819 12.762 3.58644 8.33125C3.88144 5.80375 5.91144 3.8225 8.42769 3.54125C11.7432 3.1736 15.0836 3.08454 18.4139 3.275C18.4616 3.27842 18.5073 3.29543 18.5456 3.32401C18.5839 3.35259 18.6132 3.39155 18.63 3.43627C18.6468 3.48099 18.6505 3.5296 18.6406 3.57634C18.6306 3.62308 18.6075 3.66599 18.5739 3.7L17.3327 4.94C17.2841 4.98843 17.2261 5.0264 17.1622 5.05155C17.0984 5.0767 17.03 5.08851 16.9614 5.08625C14.1824 4.99178 11.4001 5.0983 8.63644 5.405C7.82887 5.49438 7.07501 5.8534 6.49663 6.42406C5.91826 6.99472 5.54916 7.74369 5.44894 8.55C4.94775 12.8354 4.94775 17.1646 5.44894 21.45C5.54916 22.2563 5.91826 23.0053 6.49663 23.5759C7.07501 24.1466 7.82887 24.5056 8.63644 24.595C12.8302 25.0637 17.1702 25.0637 21.3652 24.595C22.1728 24.5056 22.9266 24.1466 23.505 23.5759C24.0834 23.0053 24.4512 22.2563 24.5514 21.45Z" fill="#717171"/>
</svg>
