<svg width="61" height="61" viewBox="0 0 61 61" fill="none" xmlns="http://www.w3.org/2000/svg">
<g filter="url(#filter0_d_898_3377)">
<rect x="4" width="53" height="53" rx="26.5" fill="#F8F8F8"/>
<g filter="url(#filter1_d_898_3377)">
<path d="M14.7221 37.7704C13.931 37.7706 13.21 37.3296 12.8803 36.6294C12.2044 35.194 11.1338 32.8284 11.0611 32.096C10.8886 30.3963 11.1212 27.8044 11.2665 27.117C11.4812 26.0973 12.4301 24.0217 13.7611 22.868C15.0921 21.7142 15.6215 21.6822 16.7065 20.0991C17.7915 18.5159 19.4167 16.7153 20.1916 15.9954C20.9664 15.2756 21.4116 15.0956 22.188 15.0236C22.9644 14.9517 23.1863 15.0236 23.9627 15.5275C24.7391 16.0314 25.1437 17.0032 25.8113 17.6871C26.4788 18.3709 26.3658 18.4069 26.8095 18.4429C27.2531 18.4789 27.6229 18.3709 28.0665 18.227C28.5102 18.083 29.0293 17.5431 30.3588 16.6433C31.6882 15.7435 31.9506 15.4555 33.1316 15.3836C34.3127 15.3116 35.1651 15.2756 35.9415 16.1394C36.7179 17.0032 37.0239 17.867 37.3515 18.7668C37.6791 19.6666 37.6052 19.9906 38.0488 20.3505C38.4925 20.7104 40.3786 21.5382 41.5617 22.1501C42.7447 22.762 45.5926 24.5256 46.6827 26.7931C47.7729 29.0606 48.3639 29.2426 48.8076 31.868C49.0148 33.0941 49.1978 34.4603 49.334 35.5685C49.4783 36.7422 48.5312 37.762 47.3169 37.7623L14.7221 37.7704Z" fill="url(#paint0_linear_898_3377)"/>
<g filter="url(#filter2_d_898_3377)">
<path d="M29.2084 25.2935C29.0359 25.2935 28.3355 25.3605 27.9478 25.6774C27.4949 26.0503 27.2094 26.7492 27.1683 26.9921C27.0995 27.4551 27.0565 27.9213 27.0394 28.3888C27.0143 28.9587 27.1991 29.4631 27.2551 29.6276C27.4169 30.1045 28.0592 30.8483 28.5029 30.9683C28.9466 31.0882 30.0773 31.1212 30.3977 30.9773C30.7181 30.8333 31.2706 30.3044 31.3651 29.9965C31.4817 29.6141 31.7579 28.5468 31.6101 27.6595C31.4632 26.7802 31.2583 26.0768 30.8316 25.7254C30.2929 25.2815 29.2084 25.2935 29.2084 25.2935Z" fill="black" fill-opacity="0.75"/>
<path d="M15.0112 24.7178C13.9842 24.9097 13.6864 25.4736 13.4399 25.8095C13.1934 26.1455 12.6758 27.2012 12.7128 27.9091C12.7498 28.6169 13.1688 29.7207 13.5262 30.0326C13.8836 30.3446 14.7709 30.4645 15.0544 30.3566C15.3378 30.2486 15.8836 29.8752 16.2436 29.1473C16.6036 28.4195 16.6842 27.8771 16.6878 27.3597C16.6914 26.8423 16.7612 26.5679 16.6072 25.986C16.468 25.4606 16.3853 25.2782 16.0896 25.0622C15.7938 24.8462 15.0112 24.7178 15.0112 24.7178Z" fill="black" fill-opacity="0.75"/>
<path d="M22.2192 29.468C22.1563 29.468 22.0934 29.463 22.0313 29.453C21.601 29.3866 21.2272 29.0906 21.0218 28.6587L20.86 28.8762C20.8543 28.8842 20.8481 28.8918 20.8415 28.8992C20.5026 29.2891 20.156 29.3631 19.926 29.3576C19.6959 29.3521 19.3483 29.2576 19.0248 28.8427C19.0171 28.8327 19.0099 28.8222 19.0032 28.8117L18.5241 28.0369C18.475 27.9573 18.4603 27.862 18.4833 27.7719C18.5063 27.6818 18.5651 27.6043 18.6468 27.5565C18.7286 27.5086 18.8265 27.4943 18.919 27.5167C19.0115 27.5391 19.0912 27.5964 19.1403 27.6759L19.6091 28.4333C19.7231 28.5757 19.8423 28.6552 19.9455 28.6577C20.0795 28.6612 20.2125 28.5382 20.2849 28.4578L20.706 27.8874C20.7117 27.8792 20.7178 27.8714 20.7244 27.8639C20.7737 27.8016 20.8393 27.7533 20.9142 27.7241C20.9892 27.695 21.0708 27.6859 21.1506 27.6979C21.4279 27.7439 21.5327 28.0089 21.6164 28.2218C21.6308 28.2588 21.6451 28.2953 21.66 28.3293L21.6631 28.3368C21.7658 28.5752 21.943 28.7307 22.1463 28.7622C22.3153 28.7887 22.4832 28.7217 22.6187 28.5737L23.3053 27.7139C23.3638 27.6406 23.4498 27.5929 23.5444 27.5813C23.639 27.5698 23.7345 27.5952 23.8098 27.6522C23.8851 27.7091 23.9341 27.7929 23.946 27.885C23.9579 27.9771 23.9317 28.07 23.8732 28.1433L23.1795 29.0116C23.1755 29.017 23.1712 29.0222 23.1666 29.0271C23.0509 29.163 22.9063 29.2728 22.7427 29.3489C22.5791 29.425 22.4005 29.4657 22.2192 29.468Z" fill="black" fill-opacity="0.75"/>
</g>
<path d="M24.5953 37.7617C23.9031 36.6764 22.5151 35.9351 20.9151 35.9351C19.3151 35.9351 17.9266 36.6764 17.2344 37.7617H24.5953Z" fill="white"/>
<g opacity="0.2">
<path d="M46.2648 26.0649C45.5859 26.7283 44.9297 27.4247 44.7982 27.7646C44.5024 28.5204 44.484 29.2223 44.7058 29.4742C44.9276 29.7262 44.9461 29.9781 45.3733 29.9961C45.8006 30.0141 45.9834 30.0861 46.5934 29.7462C46.8137 29.6232 47.2979 29.2808 47.8258 28.8933C47.5177 28.3385 47.1454 27.7531 46.6848 26.7938C46.5622 26.5417 46.4218 26.2982 46.2648 26.0649Z" fill="black" fill-opacity="0.75"/>
<path d="M42.7857 27.2431C43.1185 27.2251 43.2109 27.3691 43.6361 27.0092C44.0612 26.6492 44.6158 25.9834 44.967 25.5695C45.0754 25.442 45.2541 25.2475 45.4497 25.0396C44.7863 24.3257 44.0119 23.7049 43.3023 23.209C42.644 24.0013 41.9641 24.8641 41.9159 25.1016C41.8234 25.5695 41.6591 26.3253 41.9159 26.6133C42.1726 26.9012 42.4504 27.2611 42.7857 27.2431Z" fill="black" fill-opacity="0.75"/>
<path d="M39.7513 25.9053C40.2073 25.6894 40.3059 25.7374 41.1809 24.0817C41.489 23.4948 41.7889 22.929 42.0538 22.4196C41.87 22.3141 41.7036 22.2236 41.5619 22.1501C40.9426 21.8302 40.1313 21.4503 39.4345 21.1104C38.8316 22.1921 38.1857 23.4354 38.1723 23.8178C38.1477 24.5376 38.0491 24.8735 38.3448 25.2935C38.6406 25.7134 39.0298 26.2478 39.7513 25.9053Z" fill="black" fill-opacity="0.75"/>
</g>
</g>
</g>
<defs>
<filter id="filter0_d_898_3377" x="0" y="0" width="61" height="61" filterUnits="userSpaceOnUse" color-interpolation-filters="sRGB">
<feFlood flood-opacity="0" result="BackgroundImageFix"/>
<feColorMatrix in="SourceAlpha" type="matrix" values="0 0 0 0 0 0 0 0 0 0 0 0 0 0 0 0 0 0 127 0" result="hardAlpha"/>
<feOffset dy="4"/>
<feGaussianBlur stdDeviation="2"/>
<feComposite in2="hardAlpha" operator="out"/>
<feColorMatrix type="matrix" values="0 0 0 0 0 0 0 0 0 0 0 0 0 0 0 0 0 0 0.1 0"/>
<feBlend mode="normal" in2="BackgroundImageFix" result="effect1_dropShadow_898_3377"/>
<feBlend mode="normal" in="SourceGraphic" in2="effect1_dropShadow_898_3377" result="shape"/>
</filter>
<filter id="filter1_d_898_3377" x="9.51594" y="13.5159" width="41.7734" height="26.1953" filterUnits="userSpaceOnUse" color-interpolation-filters="sRGB">
<feFlood flood-opacity="0" result="BackgroundImageFix"/>
<feColorMatrix in="SourceAlpha" type="matrix" values="0 0 0 0 0 0 0 0 0 0 0 0 0 0 0 0 0 0 127 0" result="hardAlpha"/>
<feOffset dx="0.228317" dy="0.228317"/>
<feGaussianBlur stdDeviation="0.85619"/>
<feComposite in2="hardAlpha" operator="out"/>
<feColorMatrix type="matrix" values="0 0 0 0 0 0 0 0 0 0 0 0 0 0 0 0 0 0 0.25 0"/>
<feBlend mode="normal" in2="BackgroundImageFix" result="effect1_dropShadow_898_3377"/>
<feBlend mode="normal" in="SourceGraphic" in2="effect1_dropShadow_898_3377" result="shape"/>
</filter>
<filter id="filter2_d_898_3377" x="11.2269" y="23.2337" width="22.3662" height="9.77925" filterUnits="userSpaceOnUse" color-interpolation-filters="sRGB">
<feFlood flood-opacity="0" result="BackgroundImageFix"/>
<feColorMatrix in="SourceAlpha" type="matrix" values="0 0 0 0 0 0 0 0 0 0 0 0 0 0 0 0 0 0 127 0" result="hardAlpha"/>
<feOffset dx="0.228317" dy="0.228317"/>
<feGaussianBlur stdDeviation="0.85619"/>
<feComposite in2="hardAlpha" operator="out"/>
<feColorMatrix type="matrix" values="0 0 0 0 0 0 0 0 0 0 0 0 0 0 0 0 0 0 0.25 0"/>
<feBlend mode="normal" in2="BackgroundImageFix" result="effect1_dropShadow_898_3377"/>
<feBlend mode="normal" in="SourceGraphic" in2="effect1_dropShadow_898_3377" result="shape"/>
</filter>
<linearGradient id="paint0_linear_898_3377" x1="9.36942" y1="16.1809" x2="46.5341" y2="43.4736" gradientUnits="userSpaceOnUse">
<stop offset="0.675944" stop-color="#78EBA6"/>
<stop offset="0.992239" stop-color="#85AD82"/>
<stop offset="1" stop-color="#588E6E"/>
</linearGradient>
</defs>
</svg>
