<svg width="30" height="30" viewBox="0 0 30 30" fill="none" xmlns="http://www.w3.org/2000/svg">
<path d="M22.2886 20.7064C26.5475 15.5738 26.7368 8.85806 22.7114 5.70644C18.6859 2.55483 11.9702 4.16077 7.71136 9.29342C3.45249 14.4261 3.26324 21.1418 7.28864 24.2934C11.314 27.445 18.0298 25.8391 22.2886 20.7064Z" fill="#FCEA2B"/>
<path d="M22.6123 5.70652C21.0142 4.49723 18.9995 3.92925 16.9831 4.11955C18.5385 4.2124 20.0271 4.76628 21.2482 5.70652C25.2733 8.85826 25.0845 15.5737 20.8258 20.7063C18.2271 23.8383 14.7141 25.6539 11.4551 25.88C15.0654 26.1427 19.223 24.2811 22.1895 20.7063C26.4483 15.5737 26.6379 8.85785 22.6123 5.70652Z" fill="white"/>
<path d="M23.9712 6.13868C23.7593 5.97251 23.5392 5.81637 23.3118 5.67081C23.2967 5.66375 23.2811 5.65757 23.2652 5.65231C23.1924 5.61728 23.1108 5.60276 23.0299 5.61037C22.9468 5.61851 22.8686 5.65238 22.8069 5.70699C22.793 5.71568 22.7798 5.72515 22.7671 5.73535C22.759 5.74358 22.7565 5.75468 22.7493 5.76331C22.7421 5.77195 22.7319 5.77729 22.7252 5.78675C22.718 5.80145 22.7118 5.81655 22.7065 5.83197C22.67 5.9035 22.6551 5.9836 22.6634 6.06303C22.667 6.08861 22.6731 6.1138 22.6816 6.13826C22.6964 6.19 22.724 6.23742 22.762 6.27641C22.771 6.29026 22.7809 6.30358 22.7916 6.31629C26.2953 9.4557 25.93 15.6638 21.9599 20.449C17.8536 25.397 11.3914 26.9778 7.55507 23.9736C7.53021 23.9577 7.50368 23.9443 7.47592 23.9337L7.45265 23.9218C7.4122 23.9053 7.36936 23.8951 7.32567 23.8914L7.29181 23.8885C7.20147 23.8864 7.11318 23.9149 7.04209 23.9691C7.02781 23.9763 7.01396 23.9842 7.00062 23.9929C6.99215 23.9999 6.98919 24.0098 6.98199 24.0176C6.97522 24.0246 6.96591 24.0279 6.95956 24.0353C6.95228 24.0474 6.94564 24.0599 6.93967 24.0727C6.91915 24.1015 6.90251 24.1327 6.89015 24.1656C6.88608 24.1787 6.88269 24.192 6.87999 24.2055C6.87006 24.2454 6.86635 24.2866 6.86899 24.3276L6.87279 24.3514C6.87901 24.3961 6.89274 24.4394 6.91343 24.4797L6.92485 24.4982C6.93743 24.5248 6.9529 24.55 6.97099 24.5735C7.26904 24.8934 7.59255 25.1901 7.93854 25.4607C9.55586 26.7033 11.5656 27.3649 13.6274 27.3334C17.2631 27.3334 21.1994 25.4915 24.0089 22.1058C28.4293 16.7788 28.4124 9.61563 23.9712 6.13868Z" fill="#F1B31C"/>
<path d="M9.28613 19.1459C9.31703 19.0506 9.54431 18.2357 9.57437 18.1407C12.0792 18.1839 12.2027 18.1029 12.5748 16.9036C13.2774 14.6391 13.4822 14.2337 14.1852 11.9692C14.432 11.1749 14.3884 11.0014 13.216 10.7843L12.502 10.6565C12.5286 10.5726 12.6886 9.80335 12.7153 9.71989C14.4439 9.72097 16.1708 9.61261 17.8849 9.39551L15.5574 17.207C15.1943 18.4265 15.2391 18.5243 17.644 18.9757C17.6161 19.0719 17.3901 19.8876 17.3626 19.9842L9.28613 19.1459Z" fill="#F1B31C"/>
</svg>
