<svg width="18" height="13" viewBox="0 0 18 13" fill="none" xmlns="http://www.w3.org/2000/svg">
<path d="M0 13V10.725C0 10.2646 0.11849 9.84141 0.355469 9.45547C0.592448 9.06953 0.907292 8.775 1.3 8.57187C2.13958 8.15208 2.99271 7.83724 3.85938 7.62734C4.72604 7.41745 5.60625 7.3125 6.5 7.3125C7.39375 7.3125 8.27396 7.41745 9.14063 7.62734C10.0073 7.83724 10.8604 8.15208 11.7 8.57187C12.0927 8.775 12.4076 9.06953 12.6445 9.45547C12.8815 9.84141 13 10.2646 13 10.725V13H0ZM14.625 13V10.5625C14.625 9.96667 14.4591 9.39453 14.1273 8.84609C13.7956 8.29766 13.325 7.82708 12.7156 7.43437C13.4063 7.51562 14.0563 7.65443 14.6656 7.85078C15.275 8.04714 15.8438 8.2875 16.3719 8.57187C16.8594 8.84271 17.2318 9.14401 17.4891 9.47578C17.7464 9.80755 17.875 10.1698 17.875 10.5625V13H14.625ZM6.5 6.5C5.60625 6.5 4.84115 6.18177 4.20469 5.54531C3.56823 4.90885 3.25 4.14375 3.25 3.25C3.25 2.35625 3.56823 1.59115 4.20469 0.954687C4.84115 0.318229 5.60625 0 6.5 0C7.39375 0 8.15886 0.318229 8.79531 0.954687C9.43177 1.59115 9.75 2.35625 9.75 3.25C9.75 4.14375 9.43177 4.90885 8.79531 5.54531C8.15886 6.18177 7.39375 6.5 6.5 6.5ZM14.625 3.25C14.625 4.14375 14.3068 4.90885 13.6703 5.54531C13.0339 6.18177 12.2688 6.5 11.375 6.5C11.226 6.5 11.0365 6.48307 10.8063 6.44922C10.576 6.41536 10.3865 6.37812 10.2375 6.3375C10.6031 5.90417 10.8841 5.42344 11.0805 4.89531C11.2768 4.36719 11.375 3.81875 11.375 3.25C11.375 2.68125 11.2768 2.13281 11.0805 1.60469C10.8841 1.07656 10.6031 0.595833 10.2375 0.1625C10.4271 0.0947917 10.6167 0.0507812 10.8063 0.0304687C10.9958 0.0101562 11.1854 0 11.375 0C12.2688 0 13.0339 0.318229 13.6703 0.954687C14.3068 1.59115 14.625 2.35625 14.625 3.25ZM1.625 11.375H11.375V10.725C11.375 10.576 11.3378 10.4406 11.2633 10.3187C11.1888 10.1969 11.0906 10.1021 10.9688 10.0344C10.2375 9.66875 9.49948 9.39453 8.75469 9.21172C8.0099 9.02891 7.25833 8.9375 6.5 8.9375C5.74167 8.9375 4.99011 9.02891 4.24531 9.21172C3.50052 9.39453 2.7625 9.66875 2.03125 10.0344C1.90938 10.1021 1.8112 10.1969 1.73672 10.3187C1.66224 10.4406 1.625 10.576 1.625 10.725V11.375ZM6.5 4.875C6.94688 4.875 7.32943 4.71589 7.64766 4.39766C7.96589 4.07943 8.125 3.69687 8.125 3.25C8.125 2.80312 7.96589 2.42057 7.64766 2.10234C7.32943 1.78411 6.94688 1.625 6.5 1.625C6.05313 1.625 5.67057 1.78411 5.35234 2.10234C5.03412 2.42057 4.875 2.80312 4.875 3.25C4.875 3.69687 5.03412 4.07943 5.35234 4.39766C5.67057 4.71589 6.05313 4.875 6.5 4.875Z" fill="#B9BBBE"/>
</svg>
