<svg width="406" height="156" viewBox="0 0 406 156" fill="none" xmlns="http://www.w3.org/2000/svg">
<path d="M135.27 36.75V40.02C135.27 40.2189 135.349 40.4097 135.489 40.5503C135.63 40.691 135.821 40.77 136.02 40.77C136.218 40.77 136.409 40.691 136.55 40.5503C136.691 40.4097 136.77 40.2189 136.77 40.02V36.75C136.77 36.5511 136.691 36.3603 136.55 36.2197C136.409 36.079 136.218 36 136.02 36C135.821 36 135.63 36.079 135.489 36.2197C135.349 36.3603 135.27 36.5511 135.27 36.75Z" fill="#EA83AB"/>
<path d="M135.27 46.03V49.3C135.27 49.4989 135.349 49.6897 135.489 49.8304C135.63 49.971 135.821 50.05 136.02 50.05C136.218 50.05 136.409 49.971 136.55 49.8304C136.691 49.6897 136.77 49.4989 136.77 49.3V46.03C136.77 45.8311 136.691 45.6404 136.55 45.4997C136.409 45.359 136.218 45.28 136.02 45.28C135.821 45.28 135.63 45.359 135.489 45.4997C135.349 45.6404 135.27 45.8311 135.27 46.03Z" fill="#EA83AB"/>
<path d="M137.62 41.43C137.761 41.5707 137.951 41.6498 138.15 41.65C138.348 41.6457 138.537 41.5672 138.68 41.43L140.99 39.12C141.131 38.9794 141.209 38.7887 141.209 38.59C141.209 38.3912 141.131 38.2006 140.99 38.06C140.921 37.9892 140.839 37.933 140.748 37.8946C140.657 37.8562 140.559 37.8364 140.46 37.8364C140.361 37.8364 140.263 37.8562 140.172 37.8946C140.081 37.933 139.999 37.9892 139.93 38.06L137.62 40.37C137.549 40.4389 137.493 40.5214 137.455 40.6124C137.416 40.7034 137.396 40.8012 137.396 40.9C137.396 40.9988 137.416 41.0966 137.455 41.1876C137.493 41.2786 137.549 41.361 137.62 41.43Z" fill="#EA83AB"/>
<path d="M142.29 42.27H139.03C138.831 42.27 138.641 42.349 138.5 42.4897C138.359 42.6303 138.28 42.8211 138.28 43.02C138.28 43.2189 138.359 43.4097 138.5 43.5504C138.641 43.691 138.831 43.77 139.03 43.77H142.29C142.489 43.77 142.68 43.691 142.821 43.5504C142.961 43.4097 143.04 43.2189 143.04 43.02C143.04 42.8211 142.961 42.6303 142.821 42.4897C142.68 42.349 142.489 42.27 142.29 42.27Z" fill="#EA83AB"/>
<path d="M138.68 44.61C138.539 44.4695 138.349 44.3906 138.15 44.3906C137.951 44.3906 137.761 44.4695 137.62 44.61C137.549 44.6789 137.493 44.7613 137.455 44.8524C137.416 44.9434 137.396 45.0412 137.396 45.14C137.396 45.2388 137.416 45.3366 137.455 45.4276C137.493 45.5186 137.549 45.601 137.62 45.67L139.93 47.98C139.998 48.0515 140.081 48.108 140.172 48.1459C140.263 48.1838 140.361 48.2022 140.46 48.2C140.559 48.2004 140.656 48.1812 140.747 48.1434C140.838 48.1057 140.921 48.0501 140.99 47.98C141.131 47.8393 141.209 47.6487 141.209 47.45C141.209 47.2512 141.131 47.0606 140.99 46.92L138.68 44.61Z" fill="#EA83AB"/>
<path d="M133.37 44.6098L131.06 46.9198C130.99 46.9887 130.933 47.0712 130.895 47.1622C130.857 47.2532 130.837 47.351 130.837 47.4498C130.837 47.5486 130.857 47.6464 130.895 47.7374C130.933 47.8284 130.99 47.9109 131.06 47.9798C131.129 48.0513 131.211 48.1079 131.302 48.1457C131.394 48.1836 131.492 48.202 131.59 48.1998C131.689 48.2003 131.787 48.181 131.878 48.1433C131.969 48.1055 132.051 48.0499 132.12 47.9798L134.43 45.6698C134.504 45.6011 134.563 45.5183 134.604 45.4263C134.645 45.3343 134.667 45.235 134.669 45.1343C134.671 45.0336 134.652 44.9336 134.615 44.8402C134.577 44.7468 134.521 44.662 134.45 44.5908C134.378 44.5195 134.293 44.4634 134.2 44.4257C134.107 44.388 134.007 44.3694 133.906 44.3712C133.805 44.373 133.706 44.395 133.614 44.436C133.522 44.477 133.439 44.5361 133.37 44.6098Z" fill="#EA83AB"/>
<path d="M133.02 43.77C133.219 43.77 133.41 43.691 133.55 43.5504C133.691 43.4097 133.77 43.2189 133.77 43.02C133.77 42.8211 133.691 42.6303 133.55 42.4897C133.41 42.349 133.219 42.27 133.02 42.27H129.75C129.551 42.27 129.36 42.349 129.22 42.4897C129.079 42.6303 129 42.8211 129 43.02C129 43.2189 129.079 43.4097 129.22 43.5504C129.36 43.691 129.551 43.77 129.75 43.77H133.02Z" fill="#EA83AB"/>
<path d="M131.06 38.06C130.99 38.1289 130.933 38.2114 130.895 38.3024C130.857 38.3934 130.837 38.4912 130.837 38.59C130.837 38.6888 130.857 38.7866 130.895 38.8776C130.933 38.9686 130.99 39.0511 131.06 39.12L133.37 41.43C133.512 41.5689 133.702 41.6477 133.9 41.65C134.098 41.6457 134.288 41.5672 134.43 41.43C134.571 41.2894 134.65 41.0987 134.65 40.9C134.65 40.7012 134.571 40.5106 134.43 40.37L132.12 38.06C132.052 37.9892 131.969 37.933 131.878 37.8946C131.787 37.8562 131.689 37.8364 131.59 37.8364C131.492 37.8364 131.394 37.8562 131.303 37.8946C131.212 37.933 131.129 37.9892 131.06 38.06Z" fill="#EA83AB"/>
<path d="M397.27 141.75V145.02C397.27 145.219 397.349 145.41 397.489 145.55C397.63 145.691 397.821 145.77 398.02 145.77C398.218 145.77 398.409 145.691 398.55 145.55C398.691 145.41 398.77 145.219 398.77 145.02V141.75C398.77 141.551 398.691 141.36 398.55 141.22C398.409 141.079 398.218 141 398.02 141C397.821 141 397.63 141.079 397.489 141.22C397.349 141.36 397.27 141.551 397.27 141.75Z" fill="#C06EF2"/>
<path d="M397.27 151.03V154.3C397.27 154.499 397.349 154.69 397.489 154.83C397.63 154.971 397.821 155.05 398.02 155.05C398.218 155.05 398.409 154.971 398.55 154.83C398.691 154.69 398.77 154.499 398.77 154.3V151.03C398.77 150.831 398.691 150.64 398.55 150.5C398.409 150.359 398.218 150.28 398.02 150.28C397.821 150.28 397.63 150.359 397.489 150.5C397.349 150.64 397.27 150.831 397.27 151.03Z" fill="#C06EF2"/>
<path d="M399.62 146.43C399.761 146.571 399.951 146.65 400.15 146.65C400.348 146.646 400.537 146.567 400.68 146.43L402.99 144.12C403.131 143.979 403.209 143.789 403.209 143.59C403.209 143.391 403.131 143.201 402.99 143.06C402.921 142.989 402.839 142.933 402.748 142.895C402.657 142.856 402.559 142.836 402.46 142.836C402.361 142.836 402.263 142.856 402.172 142.895C402.081 142.933 401.999 142.989 401.93 143.06L399.62 145.37C399.549 145.439 399.493 145.521 399.455 145.612C399.416 145.703 399.396 145.801 399.396 145.9C399.396 145.999 399.416 146.097 399.455 146.188C399.493 146.279 399.549 146.361 399.62 146.43Z" fill="#C06EF2"/>
<path d="M404.29 147.27H401.03C400.831 147.27 400.641 147.349 400.5 147.49C400.359 147.63 400.28 147.821 400.28 148.02C400.28 148.219 400.359 148.41 400.5 148.55C400.641 148.691 400.831 148.77 401.03 148.77H404.29C404.489 148.77 404.68 148.691 404.821 148.55C404.961 148.41 405.04 148.219 405.04 148.02C405.04 147.821 404.961 147.63 404.821 147.49C404.68 147.349 404.489 147.27 404.29 147.27Z" fill="#C06EF2"/>
<path d="M400.68 149.61C400.539 149.47 400.349 149.391 400.15 149.391C399.951 149.391 399.761 149.47 399.62 149.61C399.549 149.679 399.493 149.761 399.455 149.852C399.416 149.943 399.396 150.041 399.396 150.14C399.396 150.239 399.416 150.337 399.455 150.428C399.493 150.519 399.549 150.601 399.62 150.67L401.93 152.98C401.998 153.051 402.081 153.108 402.172 153.146C402.263 153.184 402.361 153.202 402.46 153.2C402.559 153.2 402.656 153.181 402.747 153.143C402.838 153.106 402.921 153.05 402.99 152.98C403.131 152.839 403.209 152.649 403.209 152.45C403.209 152.251 403.131 152.061 402.99 151.92L400.68 149.61Z" fill="#C06EF2"/>
<path d="M395.37 149.61L393.06 151.92C392.99 151.989 392.933 152.071 392.895 152.162C392.857 152.253 392.837 152.351 392.837 152.45C392.837 152.549 392.857 152.646 392.895 152.737C392.933 152.828 392.99 152.911 393.06 152.98C393.129 153.051 393.211 153.108 393.302 153.146C393.394 153.184 393.492 153.202 393.59 153.2C393.689 153.2 393.787 153.181 393.878 153.143C393.969 153.105 394.051 153.05 394.12 152.98L396.43 150.67C396.504 150.601 396.563 150.518 396.604 150.426C396.645 150.334 396.667 150.235 396.669 150.134C396.671 150.034 396.652 149.934 396.615 149.84C396.577 149.747 396.521 149.662 396.45 149.591C396.378 149.52 396.293 149.463 396.2 149.426C396.107 149.388 396.007 149.369 395.906 149.371C395.805 149.373 395.706 149.395 395.614 149.436C395.522 149.477 395.439 149.536 395.37 149.61Z" fill="#C06EF2"/>
<path d="M395.02 148.77C395.219 148.77 395.41 148.691 395.55 148.55C395.691 148.41 395.77 148.219 395.77 148.02C395.77 147.821 395.691 147.63 395.55 147.49C395.41 147.349 395.219 147.27 395.02 147.27H391.75C391.551 147.27 391.36 147.349 391.22 147.49C391.079 147.63 391 147.821 391 148.02C391 148.219 391.079 148.41 391.22 148.55C391.36 148.691 391.551 148.77 391.75 148.77H395.02Z" fill="#C06EF2"/>
<path d="M393.06 143.06C392.99 143.129 392.933 143.211 392.895 143.302C392.857 143.393 392.837 143.491 392.837 143.59C392.837 143.689 392.857 143.787 392.895 143.878C392.933 143.969 392.99 144.051 393.06 144.12L395.37 146.43C395.512 146.569 395.702 146.648 395.9 146.65C396.098 146.646 396.288 146.567 396.43 146.43C396.571 146.289 396.65 146.099 396.65 145.9C396.65 145.701 396.571 145.511 396.43 145.37L394.12 143.06C394.052 142.989 393.969 142.933 393.878 142.895C393.787 142.856 393.689 142.836 393.59 142.836C393.492 142.836 393.394 142.856 393.303 142.895C393.212 142.933 393.129 142.989 393.06 143.06Z" fill="#C06EF2"/>
<path d="M23.2695 106.75V110.02C23.2695 110.219 23.3485 110.41 23.4892 110.55C23.6299 110.691 23.8206 110.77 24.0195 110.77C24.2184 110.77 24.4092 110.691 24.5499 110.55C24.6905 110.41 24.7695 110.219 24.7695 110.02V106.75C24.7695 106.551 24.6905 106.36 24.5499 106.22C24.4092 106.079 24.2184 106 24.0195 106C23.8206 106 23.6299 106.079 23.4892 106.22C23.3485 106.36 23.2695 106.551 23.2695 106.75Z" fill="#E39999"/>
<path d="M23.2695 116.03V119.3C23.2695 119.499 23.3485 119.69 23.4892 119.83C23.6299 119.971 23.8206 120.05 24.0195 120.05C24.2184 120.05 24.4092 119.971 24.5499 119.83C24.6905 119.69 24.7695 119.499 24.7695 119.3V116.03C24.7695 115.831 24.6905 115.64 24.5499 115.5C24.4092 115.359 24.2184 115.28 24.0195 115.28C23.8206 115.28 23.6299 115.359 23.4892 115.5C23.3485 115.64 23.2695 115.831 23.2695 116.03Z" fill="#E39999"/>
<path d="M25.6201 111.43C25.7606 111.571 25.9512 111.65 26.1501 111.65C26.3481 111.646 26.5372 111.567 26.6801 111.43L28.9901 109.12C29.1305 108.979 29.2094 108.789 29.2094 108.59C29.2094 108.391 29.1305 108.201 28.9901 108.06C28.9211 107.989 28.8387 107.933 28.7477 107.895C28.6566 107.856 28.5588 107.836 28.4601 107.836C28.3613 107.836 28.2635 107.856 28.1724 107.895C28.0814 107.933 27.999 107.989 27.9301 108.06L25.6201 110.37C25.5493 110.439 25.4931 110.521 25.4547 110.612C25.4163 110.703 25.3965 110.801 25.3965 110.9C25.3965 110.999 25.4163 111.097 25.4547 111.188C25.4931 111.279 25.5493 111.361 25.6201 111.43Z" fill="#E39999"/>
<path d="M30.2903 112.27H27.0303C26.8314 112.27 26.6406 112.349 26.4999 112.49C26.3593 112.63 26.2803 112.821 26.2803 113.02C26.2803 113.219 26.3593 113.41 26.4999 113.55C26.6406 113.691 26.8314 113.77 27.0303 113.77H30.2903C30.4892 113.77 30.68 113.691 30.8206 113.55C30.9613 113.41 31.0403 113.219 31.0403 113.02C31.0403 112.821 30.9613 112.63 30.8206 112.49C30.68 112.349 30.4892 112.27 30.2903 112.27Z" fill="#E39999"/>
<path d="M26.6801 114.61C26.5394 114.47 26.3488 114.391 26.1501 114.391C25.9513 114.391 25.7607 114.47 25.6201 114.61C25.5493 114.679 25.4931 114.761 25.4547 114.852C25.4163 114.943 25.3965 115.041 25.3965 115.14C25.3965 115.239 25.4163 115.337 25.4547 115.428C25.4931 115.519 25.5493 115.601 25.6201 115.67L27.9301 117.98C27.9982 118.051 28.0806 118.108 28.1718 118.146C28.2631 118.184 28.3613 118.202 28.4601 118.2C28.5586 118.2 28.6562 118.181 28.7472 118.143C28.8383 118.106 28.9208 118.05 28.9901 117.98C29.1305 117.839 29.2094 117.649 29.2094 117.45C29.2094 117.251 29.1305 117.061 28.9901 116.92L26.6801 114.61Z" fill="#E39999"/>
<path d="M21.3705 114.61L19.0605 116.92C18.9897 116.989 18.9335 117.071 18.8951 117.162C18.8567 117.253 18.8369 117.351 18.8369 117.45C18.8369 117.549 18.8567 117.646 18.8951 117.737C18.9335 117.828 18.9897 117.911 19.0605 117.98C19.1287 118.051 19.211 118.108 19.3023 118.146C19.3935 118.184 19.4917 118.202 19.5905 118.2C19.689 118.2 19.7867 118.181 19.8777 118.143C19.9687 118.105 20.0512 118.05 20.1205 117.98L22.4305 115.67C22.5042 115.601 22.5633 115.518 22.6043 115.426C22.6453 115.334 22.6673 115.235 22.6691 115.134C22.6709 115.034 22.6523 114.934 22.6146 114.84C22.5769 114.747 22.5207 114.662 22.4495 114.591C22.3783 114.52 22.2935 114.463 22.2001 114.426C22.1067 114.388 22.0067 114.369 21.906 114.371C21.8053 114.373 21.7059 114.395 21.6139 114.436C21.5219 114.477 21.4391 114.536 21.3705 114.61Z" fill="#E39999"/>
<path d="M21.02 113.77C21.2189 113.77 21.4097 113.691 21.5503 113.55C21.691 113.41 21.77 113.219 21.77 113.02C21.77 112.821 21.691 112.63 21.5503 112.49C21.4097 112.349 21.2189 112.27 21.02 112.27H17.75C17.5511 112.27 17.3603 112.349 17.2197 112.49C17.079 112.63 17 112.821 17 113.02C17 113.219 17.079 113.41 17.2197 113.55C17.3603 113.691 17.5511 113.77 17.75 113.77H21.02Z" fill="#E39999"/>
<path d="M19.0605 108.06C18.9897 108.129 18.9335 108.211 18.8951 108.302C18.8567 108.393 18.8369 108.491 18.8369 108.59C18.8369 108.689 18.8567 108.787 18.8951 108.878C18.9335 108.969 18.9897 109.051 19.0605 109.12L21.3705 111.43C21.5122 111.569 21.7021 111.648 21.9005 111.65C22.0985 111.646 22.2876 111.567 22.4305 111.43C22.5709 111.289 22.6498 111.099 22.6498 110.9C22.6498 110.701 22.5709 110.511 22.4305 110.37L20.1205 108.06C20.0515 107.989 19.9691 107.933 19.8781 107.895C19.7871 107.856 19.6893 107.836 19.5905 107.836C19.4917 107.836 19.3939 107.856 19.3029 107.895C19.2118 107.933 19.1294 107.989 19.0605 108.06Z" fill="#E39999"/>
<path d="M282.27 78.75V82.02C282.27 82.2189 282.349 82.4097 282.489 82.5503C282.63 82.691 282.821 82.77 283.02 82.77C283.218 82.77 283.409 82.691 283.55 82.5503C283.691 82.4097 283.77 82.2189 283.77 82.02V78.75C283.77 78.5511 283.691 78.3603 283.55 78.2197C283.409 78.079 283.218 78 283.02 78C282.821 78 282.63 78.079 282.489 78.2197C282.349 78.3603 282.27 78.5511 282.27 78.75Z" fill="#658DDE"/>
<path d="M282.27 88.03V91.3C282.27 91.4989 282.349 91.6897 282.489 91.8304C282.63 91.971 282.821 92.05 283.02 92.05C283.218 92.05 283.409 91.971 283.55 91.8304C283.691 91.6897 283.77 91.4989 283.77 91.3V88.03C283.77 87.8311 283.691 87.6404 283.55 87.4997C283.409 87.359 283.218 87.28 283.02 87.28C282.821 87.28 282.63 87.359 282.489 87.4997C282.349 87.6404 282.27 87.8311 282.27 88.03Z" fill="#658DDE"/>
<path d="M284.62 83.43C284.761 83.5707 284.951 83.6498 285.15 83.65C285.348 83.6457 285.537 83.5672 285.68 83.43L287.99 81.12C288.131 80.9794 288.209 80.7887 288.209 80.59C288.209 80.3912 288.131 80.2006 287.99 80.06C287.921 79.9892 287.839 79.933 287.748 79.8946C287.657 79.8562 287.559 79.8364 287.46 79.8364C287.361 79.8364 287.263 79.8562 287.172 79.8946C287.081 79.933 286.999 79.9892 286.93 80.06L284.62 82.37C284.549 82.4389 284.493 82.5214 284.455 82.6124C284.416 82.7034 284.396 82.8012 284.396 82.9C284.396 82.9988 284.416 83.0966 284.455 83.1876C284.493 83.2786 284.549 83.361 284.62 83.43Z" fill="#658DDE"/>
<path d="M289.29 84.27H286.03C285.831 84.27 285.641 84.349 285.5 84.4897C285.359 84.6303 285.28 84.8211 285.28 85.02C285.28 85.2189 285.359 85.4097 285.5 85.5504C285.641 85.691 285.831 85.77 286.03 85.77H289.29C289.489 85.77 289.68 85.691 289.821 85.5504C289.961 85.4097 290.04 85.2189 290.04 85.02C290.04 84.8211 289.961 84.6303 289.821 84.4897C289.68 84.349 289.489 84.27 289.29 84.27Z" fill="#658DDE"/>
<path d="M285.68 86.61C285.539 86.4695 285.349 86.3906 285.15 86.3906C284.951 86.3906 284.761 86.4695 284.62 86.61C284.549 86.6789 284.493 86.7613 284.455 86.8524C284.416 86.9434 284.396 87.0412 284.396 87.14C284.396 87.2388 284.416 87.3366 284.455 87.4276C284.493 87.5186 284.549 87.601 284.62 87.67L286.93 89.98C286.998 90.0515 287.081 90.108 287.172 90.1459C287.263 90.1838 287.361 90.2022 287.46 90.2C287.559 90.2004 287.656 90.1812 287.747 90.1434C287.838 90.1057 287.921 90.0501 287.99 89.98C288.131 89.8393 288.209 89.6487 288.209 89.45C288.209 89.2512 288.131 89.0606 287.99 88.92L285.68 86.61Z" fill="#658DDE"/>
<path d="M280.37 86.6098L278.06 88.9198C277.99 88.9887 277.933 89.0712 277.895 89.1622C277.857 89.2532 277.837 89.351 277.837 89.4498C277.837 89.5486 277.857 89.6464 277.895 89.7374C277.933 89.8284 277.99 89.9109 278.06 89.9798C278.129 90.0513 278.211 90.1079 278.302 90.1457C278.394 90.1836 278.492 90.202 278.59 90.1998C278.689 90.2003 278.787 90.181 278.878 90.1433C278.969 90.1055 279.051 90.0499 279.12 89.9798L281.43 87.6698C281.504 87.6011 281.563 87.5183 281.604 87.4263C281.645 87.3343 281.667 87.235 281.669 87.1343C281.671 87.0336 281.652 86.9336 281.615 86.8402C281.577 86.7468 281.521 86.662 281.45 86.5908C281.378 86.5195 281.293 86.4634 281.2 86.4257C281.107 86.388 281.007 86.3694 280.906 86.3712C280.805 86.373 280.706 86.395 280.614 86.436C280.522 86.477 280.439 86.5361 280.37 86.6098Z" fill="#658DDE"/>
<path d="M280.02 85.77C280.219 85.77 280.41 85.691 280.55 85.5504C280.691 85.4097 280.77 85.2189 280.77 85.02C280.77 84.8211 280.691 84.6303 280.55 84.4897C280.41 84.349 280.219 84.27 280.02 84.27H276.75C276.551 84.27 276.36 84.349 276.22 84.4897C276.079 84.6303 276 84.8211 276 85.02C276 85.2189 276.079 85.4097 276.22 85.5504C276.36 85.691 276.551 85.77 276.75 85.77H280.02Z" fill="#658DDE"/>
<path d="M278.06 80.06C277.99 80.1289 277.933 80.2114 277.895 80.3024C277.857 80.3934 277.837 80.4912 277.837 80.59C277.837 80.6888 277.857 80.7866 277.895 80.8776C277.933 80.9686 277.99 81.0511 278.06 81.12L280.37 83.43C280.512 83.5689 280.702 83.6477 280.9 83.65C281.098 83.6457 281.288 83.5672 281.43 83.43C281.571 83.2894 281.65 83.0987 281.65 82.9C281.65 82.7012 281.571 82.5106 281.43 82.37L279.12 80.06C279.052 79.9892 278.969 79.933 278.878 79.8946C278.787 79.8562 278.689 79.8364 278.59 79.8364C278.492 79.8364 278.394 79.8562 278.303 79.8946C278.212 79.933 278.129 79.9892 278.06 80.06Z" fill="#658DDE"/>
<path d="M323.27 0.75V4.02C323.27 4.21891 323.349 4.40968 323.489 4.55033C323.63 4.69098 323.821 4.77 324.02 4.77C324.218 4.77 324.409 4.69098 324.55 4.55033C324.691 4.40968 324.77 4.21891 324.77 4.02V0.75C324.77 0.551088 324.691 0.360322 324.55 0.219669C324.409 0.0790171 324.218 0 324.02 0C323.821 0 323.63 0.0790171 323.489 0.219669C323.349 0.360322 323.27 0.551088 323.27 0.75Z" fill="#F8D51E"/>
<path d="M323.27 10.03V13.3C323.27 13.4989 323.349 13.6897 323.489 13.8304C323.63 13.971 323.821 14.05 324.02 14.05C324.218 14.05 324.409 13.971 324.55 13.8304C324.691 13.6897 324.77 13.4989 324.77 13.3V10.03C324.77 9.83112 324.691 9.64035 324.55 9.4997C324.409 9.35905 324.218 9.28003 324.02 9.28003C323.821 9.28003 323.63 9.35905 323.489 9.4997C323.349 9.64035 323.27 9.83112 323.27 10.03Z" fill="#F8D51E"/>
<path d="M325.62 5.43C325.761 5.57069 325.951 5.64982 326.15 5.65C326.348 5.64569 326.537 5.56717 326.68 5.43L328.99 3.12C329.131 2.97937 329.209 2.78875 329.209 2.59C329.209 2.39125 329.131 2.20062 328.99 2.06C328.921 1.98924 328.839 1.933 328.748 1.89461C328.657 1.85621 328.559 1.83643 328.46 1.83643C328.361 1.83643 328.263 1.85621 328.172 1.89461C328.081 1.933 327.999 1.98924 327.93 2.06L325.62 4.37C325.549 4.43894 325.493 4.52136 325.455 4.61238C325.416 4.70341 325.396 4.8012 325.396 4.9C325.396 4.99879 325.416 5.09658 325.455 5.18761C325.493 5.27863 325.549 5.36105 325.62 5.43Z" fill="#F8D51E"/>
<path d="M330.29 6.27002H327.03C326.831 6.27002 326.641 6.34904 326.5 6.48969C326.359 6.63034 326.28 6.82111 326.28 7.02002C326.28 7.21893 326.359 7.4097 326.5 7.55035C326.641 7.691 326.831 7.77002 327.03 7.77002H330.29C330.489 7.77002 330.68 7.691 330.821 7.55035C330.961 7.4097 331.04 7.21893 331.04 7.02002C331.04 6.82111 330.961 6.63034 330.821 6.48969C330.68 6.34904 330.489 6.27002 330.29 6.27002Z" fill="#F8D51E"/>
<path d="M326.68 8.60996C326.539 8.46951 326.349 8.39062 326.15 8.39062C325.951 8.39062 325.761 8.46951 325.62 8.60996C325.549 8.67891 325.493 8.76133 325.455 8.85235C325.416 8.94338 325.396 9.04117 325.396 9.13997C325.396 9.23876 325.416 9.33655 325.455 9.42758C325.493 9.5186 325.549 9.60102 325.62 9.66996L327.93 11.98C327.998 12.0515 328.081 12.108 328.172 12.1459C328.263 12.1838 328.361 12.2022 328.46 12.2C328.559 12.2004 328.656 12.1812 328.747 12.1434C328.838 12.1057 328.921 12.0501 328.99 11.98C329.131 11.8393 329.209 11.6487 329.209 11.45C329.209 11.2512 329.131 11.0606 328.99 10.92L326.68 8.60996Z" fill="#F8D51E"/>
<path d="M321.37 8.61005L319.06 10.92C318.99 10.989 318.933 11.0714 318.895 11.1624C318.857 11.2535 318.837 11.3513 318.837 11.45C318.837 11.5488 318.857 11.6466 318.895 11.7377C318.933 11.8287 318.99 11.9111 319.06 11.98C319.129 12.0516 319.211 12.1081 319.302 12.146C319.394 12.1839 319.492 12.2023 319.59 12.2C319.689 12.2005 319.787 12.1813 319.878 12.1435C319.969 12.1057 320.051 12.0502 320.12 11.98L322.43 9.67005C322.504 9.60138 322.563 9.51858 322.604 9.42658C322.645 9.33459 322.667 9.23527 322.669 9.13457C322.671 9.03387 322.652 8.93384 322.615 8.84045C322.577 8.74706 322.521 8.66223 322.45 8.59101C322.378 8.51979 322.293 8.46365 322.2 8.42592C322.107 8.3882 322.007 8.36968 321.906 8.37145C321.805 8.37323 321.706 8.39527 321.614 8.43627C321.522 8.47726 321.439 8.53636 321.37 8.61005Z" fill="#F8D51E"/>
<path d="M321.02 7.77002C321.219 7.77002 321.41 7.691 321.55 7.55035C321.691 7.4097 321.77 7.21893 321.77 7.02002C321.77 6.82111 321.691 6.63034 321.55 6.48969C321.41 6.34904 321.219 6.27002 321.02 6.27002H317.75C317.551 6.27002 317.36 6.34904 317.22 6.48969C317.079 6.63034 317 6.82111 317 7.02002C317 7.21893 317.079 7.4097 317.22 7.55035C317.36 7.691 317.551 7.77002 317.75 7.77002H321.02Z" fill="#F8D51E"/>
<path d="M319.06 2.06C318.99 2.12894 318.933 2.21136 318.895 2.30238C318.857 2.39341 318.837 2.4912 318.837 2.59C318.837 2.68879 318.857 2.78658 318.895 2.87761C318.933 2.96863 318.99 3.05105 319.06 3.12L321.37 5.43C321.512 5.56888 321.702 5.64769 321.9 5.65C322.098 5.64569 322.288 5.56717 322.43 5.43C322.571 5.28937 322.65 5.09875 322.65 4.9C322.65 4.70125 322.571 4.51062 322.43 4.37L320.12 2.06C320.052 1.98924 319.969 1.933 319.878 1.89461C319.787 1.85621 319.689 1.83643 319.59 1.83643C319.492 1.83643 319.394 1.85621 319.303 1.89461C319.212 1.933 319.129 1.98924 319.06 2.06Z" fill="#F8D51E"/>
<circle cx="78.5" cy="22.5" r="2.5" fill="#8EFF9A"/>
<circle cx="354.5" cy="43.5" r="2.5" fill="#779ADF"/>
<circle cx="145.5" cy="96.5" r="2.5" fill="#82D5EF"/>
<circle cx="273.5" cy="27.5" r="2.5" fill="#E89EBB"/>
<circle cx="23" cy="39" r="3.5" stroke="#7A9DE3"/>
<circle cx="380" cy="73" r="3.5" stroke="#E39999"/>
<circle cx="312" cy="38" r="3.5" stroke="#8EE297"/>
<circle cx="276.5" cy="118.5" r="2" stroke="#C06EF2"/>
<circle cx="258.5" cy="63.5" r="2" stroke="#EEDB98"/>
<circle cx="166.5" cy="14.5" r="2" stroke="#7A9DE3"/>
<circle cx="2.5" cy="79.5" r="2" stroke="#F4A5F1"/>
<circle cx="393.5" cy="14.5" r="2" stroke="#F9D6CE"/>
</svg>
