<svg width="18" height="20" viewBox="0 0 18 20" fill="none" xmlns="http://www.w3.org/2000/svg">
<path d="M5.71429 1.90476V0H11.4286V1.90476H5.71429ZM7.61905 12.381H9.52381V6.66667H7.61905V12.381ZM8.57143 20C7.39682 20 6.28968 19.7738 5.25 19.3214C4.21032 18.869 3.30159 18.254 2.52381 17.4762C1.74603 16.6984 1.13095 15.7897 0.678571 14.75C0.22619 13.7103 0 12.6032 0 11.4286C0 10.254 0.22619 9.14683 0.678571 8.10714C1.13095 7.06746 1.74603 6.15873 2.52381 5.38095C3.30159 4.60317 4.21032 3.9881 5.25 3.53571C6.28968 3.08333 7.39682 2.85714 8.57143 2.85714C9.55556 2.85714 10.5 3.01587 11.4048 3.33333C12.3095 3.65079 13.1587 4.11111 13.9524 4.71429L15.2857 3.38095L16.619 4.71429L15.2857 6.04762C15.8889 6.84127 16.3492 7.69048 16.6667 8.59524C16.9841 9.5 17.1429 10.4444 17.1429 11.4286C17.1429 12.6032 16.9167 13.7103 16.4643 14.75C16.0119 15.7897 15.3968 16.6984 14.619 17.4762C13.8413 18.254 12.9325 18.869 11.8929 19.3214C10.8532 19.7738 9.74603 20 8.57143 20ZM8.57143 18.0952C10.4127 18.0952 11.9841 17.4444 13.2857 16.1429C14.5873 14.8413 15.2381 13.2698 15.2381 11.4286C15.2381 9.5873 14.5873 8.01587 13.2857 6.71429C11.9841 5.4127 10.4127 4.7619 8.57143 4.7619C6.73016 4.7619 5.15873 5.4127 3.85714 6.71429C2.55556 8.01587 1.90476 9.5873 1.90476 11.4286C1.90476 13.2698 2.55556 14.8413 3.85714 16.1429C5.15873 17.4444 6.73016 18.0952 8.57143 18.0952Z" fill="#898989"/>
</svg>
