<svg width="13" height="20" viewBox="0 0 13 20" fill="none" xmlns="http://www.w3.org/2000/svg">
<path fill-rule="evenodd" clip-rule="evenodd" d="M1.89831 18.1021C1.23442 17.4382 1.23442 16.3618 1.89831 15.6979L7.49623 10.1L1.89831 4.50206C1.23442 3.83817 1.23442 2.76179 1.89831 2.09789C2.5622 1.434 3.63858 1.434 4.30247 2.09789L11.1025 8.89789C11.7664 9.56179 11.7664 10.6382 11.1025 11.3021L4.30247 18.1021C3.63858 18.7659 2.5622 18.7659 1.89831 18.1021Z" fill="#B9BBBE"/>
<path d="M1.89831 18.1021L2.60542 17.395L2.60542 17.3949L1.89831 18.1021ZM1.89831 15.6979L2.60542 16.405H2.60542L1.89831 15.6979ZM7.49623 10.1L8.20334 10.8071C8.39087 10.6195 8.49623 10.3652 8.49623 10.1C8.49623 9.83476 8.39087 9.58041 8.20334 9.39287L7.49623 10.1ZM1.89831 4.50206L2.60542 3.79495L2.60542 3.79495L1.89831 4.50206ZM1.89831 2.09789L2.60542 2.805L2.60542 2.805L1.89831 2.09789ZM4.30247 2.09789L3.59537 2.805L3.59537 2.805L4.30247 2.09789ZM11.1025 8.89789L11.8096 8.19079L11.1025 8.89789ZM11.1025 11.3021L11.8096 12.0092L11.1025 11.3021ZM4.30247 18.1021L3.59537 17.395H3.59537L4.30247 18.1021ZM2.60542 17.3949C2.33205 17.1216 2.33205 16.6784 2.60542 16.405L1.1912 14.9908C0.136787 16.0452 0.136787 17.7547 1.1912 18.8092L2.60542 17.3949ZM2.60542 16.405L8.20334 10.8071L6.78912 9.39287L1.1912 14.9908L2.60542 16.405ZM8.20334 9.39287L2.60542 3.79495L1.1912 5.20916L6.78912 10.8071L8.20334 9.39287ZM2.60542 3.79495C2.33205 3.52158 2.33205 3.07837 2.60542 2.805L1.1912 1.39079C0.136787 2.4452 0.136787 4.15475 1.1912 5.20916L2.60542 3.79495ZM2.60542 2.805C2.87878 2.53163 3.322 2.53163 3.59537 2.805L5.00958 1.39079C3.95516 0.336371 2.24562 0.336371 1.1912 1.39079L2.60542 2.805ZM3.59537 2.805L10.3954 9.605L11.8096 8.19079L5.00958 1.39079L3.59537 2.805ZM10.3954 9.605C10.6687 9.87837 10.6687 10.3216 10.3954 10.595L11.8096 12.0092C12.864 10.9547 12.864 9.2452 11.8096 8.19079L10.3954 9.605ZM10.3954 10.595L3.59537 17.395L5.00958 18.8092L11.8096 12.0092L10.3954 10.595ZM3.59537 17.395C3.322 17.6683 2.87878 17.6683 2.60542 17.395L1.1912 18.8092C2.24562 19.8636 3.95516 19.8636 5.00958 18.8092L3.59537 17.395Z" fill="#E7E7E7"/>
</svg>
