<svg width="19" height="13" viewBox="0 0 19 13" fill="none" xmlns="http://www.w3.org/2000/svg">
<path fill-rule="evenodd" clip-rule="evenodd" d="M1.49792 1.49792C2.16181 0.834028 3.23819 0.834028 3.90208 1.49792L9.5 7.09584L15.0979 1.49792C15.7618 0.834027 16.8382 0.834027 17.5021 1.49792C18.166 2.16181 18.166 3.23819 17.5021 3.90208L10.7021 10.7021C10.0382 11.366 8.96181 11.366 8.29792 10.7021L1.49792 3.90208C0.834026 3.23819 0.834026 2.16181 1.49792 1.49792Z" fill="#717171"/>
<path d="M1.49792 1.49792L2.20502 2.20503L2.20503 2.20503L1.49792 1.49792ZM3.90208 1.49792L3.19497 2.20503V2.20503L3.90208 1.49792ZM9.5 7.09584L8.79289 7.80294C8.98043 7.99048 9.23478 8.09584 9.5 8.09584C9.76522 8.09584 10.0196 7.99048 10.2071 7.80294L9.5 7.09584ZM15.0979 1.49792L15.805 2.20503L15.805 2.20502L15.0979 1.49792ZM17.5021 1.49792L16.795 2.20502L16.795 2.20503L17.5021 1.49792ZM17.5021 3.90208L16.795 3.19497L16.795 3.19498L17.5021 3.90208ZM10.7021 10.7021L11.4092 11.4092L10.7021 10.7021ZM8.29792 10.7021L7.59081 11.4092L8.29792 10.7021ZM1.49792 3.90208L2.20502 3.19498V3.19498L1.49792 3.90208ZM2.20503 2.20503C2.47839 1.93166 2.92161 1.93166 3.19497 2.20503L4.60919 0.790812C3.55477 -0.263603 1.84523 -0.263603 0.790812 0.790813L2.20503 2.20503ZM3.19497 2.20503L8.79289 7.80294L10.2071 6.38873L4.60919 0.790812L3.19497 2.20503ZM10.2071 7.80294L15.805 2.20503L14.3908 0.790812L8.79289 6.38873L10.2071 7.80294ZM15.805 2.20502C16.0784 1.93166 16.5216 1.93166 16.795 2.20502L18.2092 0.790812C17.1548 -0.263604 15.4452 -0.263604 14.3908 0.790812L15.805 2.20502ZM16.795 2.20503C17.0683 2.47839 17.0683 2.92161 16.795 3.19497L18.2092 4.60919C19.2636 3.55477 19.2636 1.84523 18.2092 0.790811L16.795 2.20503ZM16.795 3.19498L9.99498 9.99498L11.4092 11.4092L18.2092 4.60919L16.795 3.19498ZM9.99498 9.99498C9.72161 10.2683 9.27839 10.2683 9.00502 9.99498L7.59081 11.4092C8.64523 12.4636 10.3548 12.4636 11.4092 11.4092L9.99498 9.99498ZM9.00502 9.99498L2.20502 3.19498L0.790812 4.60919L7.59081 11.4092L9.00502 9.99498ZM2.20502 3.19498C1.93166 2.92161 1.93166 2.47839 2.20502 2.20503L0.790812 0.790813C-0.263603 1.84523 -0.263605 3.55477 0.790812 4.60919L2.20502 3.19498Z" fill="#F0F0F0"/>
</svg>
