<svg width="16" height="16" viewBox="0 0 16 16" fill="none" xmlns="http://www.w3.org/2000/svg">
<path d="M8 0C3.58892 0 0 3.58892 0 8C0 12.4111 3.58892 16 8 16C12.4111 16 16 12.4111 16 8C16 3.58892 12.4111 0 8 0ZM8 1.23077C11.7452 1.23077 14.7692 4.25477 14.7692 8C14.7692 9.67815 14.1612 11.2043 13.1538 12.3846L3.71138 2.75015C4.92154 1.7618 6.43754 1.22471 8 1.23077ZM2.84615 3.61538L12.2886 13.2498C11.0785 14.2382 9.56246 14.7753 8 14.7692C4.25477 14.7692 1.23077 11.7452 1.23077 8C1.23077 6.32185 1.83877 4.79569 2.84615 3.61538Z" fill="#717171"/>
</svg>
