<svg width="14" height="14" viewBox="0 0 14 14" fill="none" xmlns="http://www.w3.org/2000/svg">
<path d="M10.4014 9.66294C12.3888 7.2677 12.4772 4.1337 10.5986 2.66294C8.72011 1.19219 5.5861 1.94163 3.59863 4.33687C1.61116 6.7321 1.52284 9.86611 3.40137 11.3369C5.27989 12.8076 8.4139 12.0582 10.4014 9.66294Z" fill="#FCEA2B"/>
<path d="M10.5524 2.66293C9.80662 2.09859 8.86642 1.83354 7.92546 1.92234C8.65128 1.96567 9.34596 2.22415 9.91584 2.66293C11.7942 4.13374 11.7061 7.26762 9.71871 9.66282C8.50596 11.1244 6.86658 11.9717 5.3457 12.0772C7.03052 12.1998 8.97072 11.3311 10.3551 9.66282C12.3425 7.26762 12.431 4.13355 10.5524 2.66293Z" fill="white"/>
<path d="M11.1865 2.86465C11.0876 2.7871 10.9849 2.71424 10.8788 2.64631C10.8717 2.64302 10.8645 2.64013 10.857 2.63768C10.823 2.62133 10.785 2.61455 10.7472 2.61811C10.7084 2.62191 10.672 2.63771 10.6431 2.6632C10.6367 2.66725 10.6305 2.67167 10.6246 2.67643C10.6208 2.68027 10.6196 2.68545 10.6163 2.68948C10.6129 2.69351 10.6082 2.696 10.605 2.70042C10.6017 2.70728 10.5988 2.71433 10.5963 2.72152C10.5793 2.7549 10.5723 2.79228 10.5762 2.82935C10.5779 2.84128 10.5807 2.85304 10.5847 2.86446C10.5916 2.8886 10.6045 2.91073 10.6222 2.92892C10.6264 2.93539 10.631 2.9416 10.636 2.94753C12.2711 4.41259 12.1006 7.30971 10.2479 9.54279C8.3316 11.8518 5.31592 12.5896 3.52564 11.1876C3.51403 11.1802 3.50165 11.1739 3.4887 11.169L3.47784 11.1634C3.45896 11.1558 3.43897 11.151 3.41858 11.1493L3.40278 11.1479C3.36062 11.1469 3.31942 11.1602 3.28625 11.1855C3.27958 11.1889 3.27312 11.1926 3.26689 11.1966C3.26294 11.1999 3.26156 11.2045 3.2582 11.2082C3.25504 11.2114 3.25069 11.2129 3.24773 11.2164C3.24433 11.2221 3.24123 11.2279 3.23845 11.2339C3.22887 11.2473 3.22111 11.2619 3.21534 11.2772C3.21344 11.2833 3.21186 11.2896 3.2106 11.2958C3.20596 11.3145 3.20423 11.3337 3.20546 11.3528L3.20724 11.3639C3.21014 11.3848 3.21655 11.405 3.2262 11.4238L3.23153 11.4324C3.2374 11.4449 3.24462 11.4566 3.25306 11.4675C3.39215 11.6169 3.54313 11.7553 3.70458 11.8816C4.45934 12.4615 5.3972 12.7702 6.3594 12.7555C8.05607 12.7555 9.89297 11.896 11.2041 10.316C13.2669 7.83004 13.259 4.48723 11.1865 2.86465Z" fill="#F1B31C"/>
<path d="M4 8.5502C4.01442 8.50569 4.12048 8.12542 4.13451 8.0811C5.30341 8.10124 5.36108 8.06344 5.5347 7.50378C5.86258 6.44701 5.95818 6.25783 6.28625 5.20106C6.4014 4.83038 6.38106 4.74941 5.83394 4.64811L5.50073 4.58844C5.51317 4.5493 5.58783 4.19033 5.60028 4.15138C6.40696 4.15188 7.21282 4.10131 8.01274 4L6.9266 7.64538C6.75713 8.21444 6.77807 8.2601 7.90035 8.47077C7.88732 8.51566 7.78184 8.89632 7.76901 8.9414L4 8.5502Z" fill="#F1B31C"/>
</svg>
