<svg width="30" height="30" viewBox="0 0 30 30" fill="none" xmlns="http://www.w3.org/2000/svg">
<path d="M22.2886 20.7065C26.5475 15.5739 26.7368 8.85816 22.7114 5.70654C18.6859 2.55492 11.9702 4.16086 7.71136 9.29352C3.45249 14.4262 3.26324 21.1419 7.28864 24.2935C11.314 27.4451 18.0298 25.8392 22.2886 20.7065Z" fill="#FCEA2B"/>
<path d="M22.6125 5.70631C21.0143 4.49702 18.9996 3.92904 16.9833 4.11933C18.5386 4.21218 20.0272 4.76607 21.2484 5.70631C25.2735 8.85805 25.0847 15.5735 20.826 20.7061C18.2272 23.8381 14.7142 25.6536 11.4552 25.8798C15.0655 26.1425 19.2231 24.2809 22.1897 20.7061C26.4484 15.5735 26.638 8.85764 22.6125 5.70631Z" fill="white"/>
<path d="M23.9711 6.13877C23.7591 5.9726 23.5391 5.81646 23.3117 5.6709C23.2965 5.66384 23.281 5.65766 23.2651 5.6524C23.1922 5.61737 23.1107 5.60285 23.0298 5.61046C22.9467 5.6186 22.8685 5.65247 22.8067 5.70708C22.7929 5.71577 22.7796 5.72525 22.7669 5.73545C22.7589 5.74367 22.7564 5.75477 22.7492 5.7634C22.742 5.77204 22.7318 5.77738 22.725 5.78684C22.7179 5.80154 22.7117 5.81664 22.7064 5.83206C22.6699 5.90359 22.6549 5.98369 22.6632 6.06312C22.6669 6.0887 22.673 6.11389 22.6814 6.13836C22.6962 6.19009 22.7238 6.23752 22.7619 6.2765C22.7709 6.29035 22.7808 6.30367 22.7915 6.31638C26.2951 9.45579 25.9299 15.6639 21.9598 20.4491C17.8534 25.397 11.3913 26.9779 7.55493 23.9737C7.53007 23.9577 7.50354 23.9444 7.47579 23.9338L7.45251 23.9219C7.41206 23.9054 7.36923 23.8952 7.32553 23.8915L7.29167 23.8886C7.20133 23.8865 7.11305 23.915 7.04196 23.9692C7.02768 23.9764 7.01383 23.9843 7.00048 23.993C6.99201 24 6.98905 24.0099 6.98186 24.0177C6.97508 24.0247 6.96577 24.028 6.95942 24.0354C6.95214 24.0475 6.9455 24.06 6.93953 24.0728C6.91902 24.1016 6.90238 24.1328 6.89001 24.1657C6.88594 24.1788 6.88255 24.1921 6.87985 24.2056C6.86992 24.2455 6.86621 24.2867 6.86885 24.3277L6.87266 24.3515C6.87888 24.3962 6.8926 24.4395 6.91329 24.4798L6.92472 24.4983C6.93729 24.5249 6.95276 24.5501 6.97085 24.5736C7.2689 24.8935 7.59242 25.1901 7.9384 25.4608C9.55572 26.7034 11.5654 27.365 13.6273 27.3335C17.263 27.3335 21.1992 25.4916 24.0087 22.1059C28.4292 16.7789 28.4122 9.61572 23.9711 6.13877Z" fill="#F1B31C"/>
<path d="M9.28613 19.1459C9.31703 19.0506 9.54431 18.2357 9.57437 18.1407C12.0792 18.1839 12.2027 18.1029 12.5748 16.9036C13.2774 14.6391 13.4822 14.2337 14.1852 11.9692C14.432 11.1749 14.3884 11.0014 13.216 10.7843L12.502 10.6565C12.5286 10.5726 12.6886 9.80335 12.7153 9.71989C14.4439 9.72097 16.1708 9.61261 17.8849 9.39551L15.5574 17.207C15.1943 18.4265 15.2391 18.5243 17.644 18.9757C17.6161 19.0719 17.3901 19.8876 17.3626 19.9842L9.28613 19.1459Z" fill="#F1B31C"/>
</svg>
