<svg width="28" height="23" viewBox="0 0 28 23" fill="none" xmlns="http://www.w3.org/2000/svg">
<path d="M18.5 5C18.5 7.48528 16.4853 9.5 14 9.5C11.5147 9.5 9.5 7.48528 9.5 5C9.5 2.51472 11.5147 0.5 14 0.5C16.4853 0.5 18.5 2.51472 18.5 5Z" fill="#717171"/>
<path d="M26 8C26 9.65685 24.6569 11 23 11C21.3431 11 20 9.65685 20 8C20 6.34315 21.3431 5 23 5C24.6569 5 26 6.34315 26 8Z" fill="#717171"/>
<path d="M20 18.5C20 15.1863 17.3137 12.5 14 12.5C10.6863 12.5 8 15.1863 8 18.5V23H20V18.5Z" fill="#717171"/>
<path d="M8 8C8 9.65685 6.65685 11 5 11C3.34315 11 2 9.65685 2 8C2 6.34315 3.34315 5 5 5C6.65685 5 8 6.34315 8 8Z" fill="#717171"/>
<path d="M23 23V18.5C23 16.9188 22.5922 15.4328 21.8761 14.1415C22.2353 14.0491 22.6119 14 23 14C25.4853 14 27.5 16.0147 27.5 18.5V23H23Z" fill="#717171"/>
<path d="M6.12389 14.1415C5.40777 15.4328 5 16.9188 5 18.5V23H0.5V18.5C0.5 16.0147 2.51472 14 5 14C5.38806 14 5.76465 14.0491 6.12389 14.1415Z" fill="#717171"/>
</svg>
