<svg width="30" height="30" viewBox="0 0 30 30" fill="none" xmlns="http://www.w3.org/2000/svg">
<path d="M19.5 9C19.5 11.4853 17.4853 13.5 15 13.5C12.5147 13.5 10.5 11.4853 10.5 9C10.5 6.51472 12.5147 4.5 15 4.5C17.4853 4.5 19.5 6.51472 19.5 9Z" fill="#F2F2F2"/>
<path d="M27 12C27 13.6569 25.6569 15 24 15C22.3431 15 21 13.6569 21 12C21 10.3431 22.3431 9 24 9C25.6569 9 27 10.3431 27 12Z" fill="#F2F2F2"/>
<path d="M21 22.5C21 19.1863 18.3137 16.5 15 16.5C11.6863 16.5 9 19.1863 9 22.5V27H21V22.5Z" fill="#F2F2F2"/>
<path d="M9 12C9 13.6569 7.65685 15 6 15C4.34315 15 3 13.6569 3 12C3 10.3431 4.34315 9 6 9C7.65685 9 9 10.3431 9 12Z" fill="#F2F2F2"/>
<path d="M24 27V22.5C24 20.9188 23.5922 19.4328 22.8761 18.1415C23.2353 18.0491 23.6119 18 24 18C26.4853 18 28.5 20.0147 28.5 22.5V27H24Z" fill="#F2F2F2"/>
<path d="M7.12389 18.1415C6.40777 19.4328 6 20.9188 6 22.5V27H1.5V22.5C1.5 20.0147 3.51472 18 6 18C6.38806 18 6.76465 18.0491 7.12389 18.1415Z" fill="#F2F2F2"/>
</svg>
