<svg width="291" height="193" viewBox="0 0 291 193" fill="none" xmlns="http://www.w3.org/2000/svg">
<path d="M123.27 22.75V26.02C123.27 26.2189 123.349 26.4097 123.489 26.5503C123.63 26.691 123.821 26.77 124.02 26.77C124.218 26.77 124.409 26.691 124.55 26.5503C124.691 26.4097 124.77 26.2189 124.77 26.02V22.75C124.77 22.5511 124.691 22.3603 124.55 22.2197C124.409 22.079 124.218 22 124.02 22C123.821 22 123.63 22.079 123.489 22.2197C123.349 22.3603 123.27 22.5511 123.27 22.75Z" fill="#EA83AB"/>
<path d="M123.27 32.03V35.3C123.27 35.4989 123.349 35.6897 123.489 35.8304C123.63 35.971 123.821 36.05 124.02 36.05C124.218 36.05 124.409 35.971 124.55 35.8304C124.691 35.6897 124.77 35.4989 124.77 35.3V32.03C124.77 31.8311 124.691 31.6404 124.55 31.4997C124.409 31.359 124.218 31.28 124.02 31.28C123.821 31.28 123.63 31.359 123.489 31.4997C123.349 31.6404 123.27 31.8311 123.27 32.03Z" fill="#EA83AB"/>
<path d="M125.62 27.43C125.761 27.5707 125.951 27.6498 126.15 27.65C126.348 27.6457 126.537 27.5672 126.68 27.43L128.99 25.12C129.131 24.9794 129.209 24.7887 129.209 24.59C129.209 24.3912 129.131 24.2006 128.99 24.06C128.921 23.9892 128.839 23.933 128.748 23.8946C128.657 23.8562 128.559 23.8364 128.46 23.8364C128.361 23.8364 128.263 23.8562 128.172 23.8946C128.081 23.933 127.999 23.9892 127.93 24.06L125.62 26.37C125.549 26.4389 125.493 26.5214 125.455 26.6124C125.416 26.7034 125.396 26.8012 125.396 26.9C125.396 26.9988 125.416 27.0966 125.455 27.1876C125.493 27.2786 125.549 27.361 125.62 27.43Z" fill="#EA83AB"/>
<path d="M130.29 28.27H127.03C126.831 28.27 126.641 28.349 126.5 28.4897C126.359 28.6303 126.28 28.8211 126.28 29.02C126.28 29.2189 126.359 29.4097 126.5 29.5504C126.641 29.691 126.831 29.77 127.03 29.77H130.29C130.489 29.77 130.68 29.691 130.821 29.5504C130.961 29.4097 131.04 29.2189 131.04 29.02C131.04 28.8211 130.961 28.6303 130.821 28.4897C130.68 28.349 130.489 28.27 130.29 28.27Z" fill="#EA83AB"/>
<path d="M126.68 30.61C126.539 30.4695 126.349 30.3906 126.15 30.3906C125.951 30.3906 125.761 30.4695 125.62 30.61C125.549 30.6789 125.493 30.7613 125.455 30.8524C125.416 30.9434 125.396 31.0412 125.396 31.14C125.396 31.2388 125.416 31.3366 125.455 31.4276C125.493 31.5186 125.549 31.601 125.62 31.67L127.93 33.98C127.998 34.0515 128.081 34.108 128.172 34.1459C128.263 34.1838 128.361 34.2022 128.46 34.2C128.559 34.2004 128.656 34.1812 128.747 34.1434C128.838 34.1057 128.921 34.0501 128.99 33.98C129.131 33.8393 129.209 33.6487 129.209 33.45C129.209 33.2512 129.131 33.0606 128.99 32.92L126.68 30.61Z" fill="#EA83AB"/>
<path d="M121.37 30.6098L119.06 32.9198C118.99 32.9887 118.933 33.0712 118.895 33.1622C118.857 33.2532 118.837 33.351 118.837 33.4498C118.837 33.5486 118.857 33.6464 118.895 33.7374C118.933 33.8284 118.99 33.9109 119.06 33.9798C119.129 34.0513 119.211 34.1079 119.302 34.1457C119.394 34.1836 119.492 34.202 119.59 34.1998C119.689 34.2003 119.787 34.181 119.878 34.1433C119.969 34.1055 120.051 34.0499 120.12 33.9798L122.43 31.6698C122.504 31.6011 122.563 31.5183 122.604 31.4263C122.645 31.3343 122.667 31.235 122.669 31.1343C122.671 31.0336 122.652 30.9336 122.615 30.8402C122.577 30.7468 122.521 30.662 122.45 30.5908C122.378 30.5195 122.293 30.4634 122.2 30.4257C122.107 30.388 122.007 30.3694 121.906 30.3712C121.805 30.373 121.706 30.395 121.614 30.436C121.522 30.477 121.439 30.5361 121.37 30.6098Z" fill="#EA83AB"/>
<path d="M121.02 29.77C121.219 29.77 121.41 29.691 121.55 29.5504C121.691 29.4097 121.77 29.2189 121.77 29.02C121.77 28.8211 121.691 28.6303 121.55 28.4897C121.41 28.349 121.219 28.27 121.02 28.27H117.75C117.551 28.27 117.36 28.349 117.22 28.4897C117.079 28.6303 117 28.8211 117 29.02C117 29.2189 117.079 29.4097 117.22 29.5504C117.36 29.691 117.551 29.77 117.75 29.77H121.02Z" fill="#EA83AB"/>
<path d="M119.06 24.06C118.99 24.1289 118.933 24.2114 118.895 24.3024C118.857 24.3934 118.837 24.4912 118.837 24.59C118.837 24.6888 118.857 24.7866 118.895 24.8776C118.933 24.9686 118.99 25.0511 119.06 25.12L121.37 27.43C121.512 27.5689 121.702 27.6477 121.9 27.65C122.098 27.6457 122.288 27.5672 122.43 27.43C122.571 27.2894 122.65 27.0987 122.65 26.9C122.65 26.7012 122.571 26.5106 122.43 26.37L120.12 24.06C120.052 23.9892 119.969 23.933 119.878 23.8946C119.787 23.8562 119.689 23.8364 119.59 23.8364C119.492 23.8364 119.394 23.8562 119.303 23.8946C119.212 23.933 119.129 23.9892 119.06 24.06Z" fill="#EA83AB"/>
<path d="M23.2695 108.75V112.02C23.2695 112.219 23.3485 112.41 23.4892 112.55C23.6299 112.691 23.8206 112.77 24.0195 112.77C24.2184 112.77 24.4092 112.691 24.5499 112.55C24.6905 112.41 24.7695 112.219 24.7695 112.02V108.75C24.7695 108.551 24.6905 108.36 24.5499 108.22C24.4092 108.079 24.2184 108 24.0195 108C23.8206 108 23.6299 108.079 23.4892 108.22C23.3485 108.36 23.2695 108.551 23.2695 108.75Z" fill="#E39999"/>
<path d="M23.2695 118.03V121.3C23.2695 121.499 23.3485 121.69 23.4892 121.83C23.6299 121.971 23.8206 122.05 24.0195 122.05C24.2184 122.05 24.4092 121.971 24.5499 121.83C24.6905 121.69 24.7695 121.499 24.7695 121.3V118.03C24.7695 117.831 24.6905 117.64 24.5499 117.5C24.4092 117.359 24.2184 117.28 24.0195 117.28C23.8206 117.28 23.6299 117.359 23.4892 117.5C23.3485 117.64 23.2695 117.831 23.2695 118.03Z" fill="#E39999"/>
<path d="M25.6201 113.43C25.7606 113.571 25.9512 113.65 26.1501 113.65C26.3481 113.646 26.5372 113.567 26.6801 113.43L28.9901 111.12C29.1305 110.979 29.2094 110.789 29.2094 110.59C29.2094 110.391 29.1305 110.201 28.9901 110.06C28.9211 109.989 28.8387 109.933 28.7477 109.895C28.6566 109.856 28.5588 109.836 28.4601 109.836C28.3613 109.836 28.2635 109.856 28.1724 109.895C28.0814 109.933 27.999 109.989 27.9301 110.06L25.6201 112.37C25.5493 112.439 25.4931 112.521 25.4547 112.612C25.4163 112.703 25.3965 112.801 25.3965 112.9C25.3965 112.999 25.4163 113.097 25.4547 113.188C25.4931 113.279 25.5493 113.361 25.6201 113.43Z" fill="#E39999"/>
<path d="M30.2903 114.27H27.0303C26.8314 114.27 26.6406 114.349 26.4999 114.49C26.3593 114.63 26.2803 114.821 26.2803 115.02C26.2803 115.219 26.3593 115.41 26.4999 115.55C26.6406 115.691 26.8314 115.77 27.0303 115.77H30.2903C30.4892 115.77 30.68 115.691 30.8206 115.55C30.9613 115.41 31.0403 115.219 31.0403 115.02C31.0403 114.821 30.9613 114.63 30.8206 114.49C30.68 114.349 30.4892 114.27 30.2903 114.27Z" fill="#E39999"/>
<path d="M26.6801 116.61C26.5394 116.47 26.3488 116.391 26.1501 116.391C25.9513 116.391 25.7607 116.47 25.6201 116.61C25.5493 116.679 25.4931 116.761 25.4547 116.852C25.4163 116.943 25.3965 117.041 25.3965 117.14C25.3965 117.239 25.4163 117.337 25.4547 117.428C25.4931 117.519 25.5493 117.601 25.6201 117.67L27.9301 119.98C27.9982 120.051 28.0806 120.108 28.1718 120.146C28.2631 120.184 28.3613 120.202 28.4601 120.2C28.5586 120.2 28.6562 120.181 28.7472 120.143C28.8383 120.106 28.9208 120.05 28.9901 119.98C29.1305 119.839 29.2094 119.649 29.2094 119.45C29.2094 119.251 29.1305 119.061 28.9901 118.92L26.6801 116.61Z" fill="#E39999"/>
<path d="M21.3705 116.61L19.0605 118.92C18.9897 118.989 18.9335 119.071 18.8951 119.162C18.8567 119.253 18.8369 119.351 18.8369 119.45C18.8369 119.549 18.8567 119.646 18.8951 119.737C18.9335 119.828 18.9897 119.911 19.0605 119.98C19.1287 120.051 19.211 120.108 19.3023 120.146C19.3935 120.184 19.4917 120.202 19.5905 120.2C19.689 120.2 19.7867 120.181 19.8777 120.143C19.9687 120.105 20.0512 120.05 20.1205 119.98L22.4305 117.67C22.5042 117.601 22.5633 117.518 22.6043 117.426C22.6453 117.334 22.6673 117.235 22.6691 117.134C22.6709 117.034 22.6523 116.934 22.6146 116.84C22.5769 116.747 22.5207 116.662 22.4495 116.591C22.3783 116.52 22.2935 116.463 22.2001 116.426C22.1067 116.388 22.0067 116.369 21.906 116.371C21.8053 116.373 21.7059 116.395 21.6139 116.436C21.5219 116.477 21.4391 116.536 21.3705 116.61Z" fill="#E39999"/>
<path d="M21.02 115.77C21.2189 115.77 21.4097 115.691 21.5503 115.55C21.691 115.41 21.77 115.219 21.77 115.02C21.77 114.821 21.691 114.63 21.5503 114.49C21.4097 114.349 21.2189 114.27 21.02 114.27H17.75C17.5511 114.27 17.3603 114.349 17.2197 114.49C17.079 114.63 17 114.821 17 115.02C17 115.219 17.079 115.41 17.2197 115.55C17.3603 115.691 17.5511 115.77 17.75 115.77H21.02Z" fill="#E39999"/>
<path d="M19.0605 110.06C18.9897 110.129 18.9335 110.211 18.8951 110.302C18.8567 110.393 18.8369 110.491 18.8369 110.59C18.8369 110.689 18.8567 110.787 18.8951 110.878C18.9335 110.969 18.9897 111.051 19.0605 111.12L21.3705 113.43C21.5122 113.569 21.7021 113.648 21.9005 113.65C22.0985 113.646 22.2876 113.567 22.4305 113.43C22.5709 113.289 22.6498 113.099 22.6498 112.9C22.6498 112.701 22.5709 112.511 22.4305 112.37L20.1205 110.06C20.0515 109.989 19.9691 109.933 19.8781 109.895C19.7871 109.856 19.6893 109.836 19.5905 109.836C19.4917 109.836 19.3939 109.856 19.3029 109.895C19.2118 109.933 19.1294 109.989 19.0605 110.06Z" fill="#E39999"/>
<path d="M260.27 161.75V165.02C260.27 165.219 260.349 165.41 260.489 165.55C260.63 165.691 260.821 165.77 261.02 165.77C261.218 165.77 261.409 165.691 261.55 165.55C261.691 165.41 261.77 165.219 261.77 165.02V161.75C261.77 161.551 261.691 161.36 261.55 161.22C261.409 161.079 261.218 161 261.02 161C260.821 161 260.63 161.079 260.489 161.22C260.349 161.36 260.27 161.551 260.27 161.75Z" fill="#E39999"/>
<path d="M260.27 171.03V174.3C260.27 174.499 260.349 174.69 260.489 174.83C260.63 174.971 260.821 175.05 261.02 175.05C261.218 175.05 261.409 174.971 261.55 174.83C261.691 174.69 261.77 174.499 261.77 174.3V171.03C261.77 170.831 261.691 170.64 261.55 170.5C261.409 170.359 261.218 170.28 261.02 170.28C260.821 170.28 260.63 170.359 260.489 170.5C260.349 170.64 260.27 170.831 260.27 171.03Z" fill="#E39999"/>
<path d="M262.62 166.43C262.761 166.571 262.951 166.65 263.15 166.65C263.348 166.646 263.537 166.567 263.68 166.43L265.99 164.12C266.131 163.979 266.209 163.789 266.209 163.59C266.209 163.391 266.131 163.201 265.99 163.06C265.921 162.989 265.839 162.933 265.748 162.895C265.657 162.856 265.559 162.836 265.46 162.836C265.361 162.836 265.263 162.856 265.172 162.895C265.081 162.933 264.999 162.989 264.93 163.06L262.62 165.37C262.549 165.439 262.493 165.521 262.455 165.612C262.416 165.703 262.396 165.801 262.396 165.9C262.396 165.999 262.416 166.097 262.455 166.188C262.493 166.279 262.549 166.361 262.62 166.43Z" fill="#E39999"/>
<path d="M267.29 167.27H264.03C263.831 167.27 263.641 167.349 263.5 167.49C263.359 167.63 263.28 167.821 263.28 168.02C263.28 168.219 263.359 168.41 263.5 168.55C263.641 168.691 263.831 168.77 264.03 168.77H267.29C267.489 168.77 267.68 168.691 267.821 168.55C267.961 168.41 268.04 168.219 268.04 168.02C268.04 167.821 267.961 167.63 267.821 167.49C267.68 167.349 267.489 167.27 267.29 167.27Z" fill="#E39999"/>
<path d="M263.68 169.61C263.539 169.47 263.349 169.391 263.15 169.391C262.951 169.391 262.761 169.47 262.62 169.61C262.549 169.679 262.493 169.761 262.455 169.852C262.416 169.943 262.396 170.041 262.396 170.14C262.396 170.239 262.416 170.337 262.455 170.428C262.493 170.519 262.549 170.601 262.62 170.67L264.93 172.98C264.998 173.051 265.081 173.108 265.172 173.146C265.263 173.184 265.361 173.202 265.46 173.2C265.559 173.2 265.656 173.181 265.747 173.143C265.838 173.106 265.921 173.05 265.99 172.98C266.131 172.839 266.209 172.649 266.209 172.45C266.209 172.251 266.131 172.061 265.99 171.92L263.68 169.61Z" fill="#E39999"/>
<path d="M258.37 169.61L256.06 171.92C255.99 171.989 255.933 172.071 255.895 172.162C255.857 172.253 255.837 172.351 255.837 172.45C255.837 172.549 255.857 172.646 255.895 172.737C255.933 172.828 255.99 172.911 256.06 172.98C256.129 173.051 256.211 173.108 256.302 173.146C256.394 173.184 256.492 173.202 256.59 173.2C256.689 173.2 256.787 173.181 256.878 173.143C256.969 173.105 257.051 173.05 257.12 172.98L259.43 170.67C259.504 170.601 259.563 170.518 259.604 170.426C259.645 170.334 259.667 170.235 259.669 170.134C259.671 170.034 259.652 169.934 259.615 169.84C259.577 169.747 259.521 169.662 259.45 169.591C259.378 169.52 259.293 169.463 259.2 169.426C259.107 169.388 259.007 169.369 258.906 169.371C258.805 169.373 258.706 169.395 258.614 169.436C258.522 169.477 258.439 169.536 258.37 169.61Z" fill="#E39999"/>
<path d="M258.02 168.77C258.219 168.77 258.41 168.691 258.55 168.55C258.691 168.41 258.77 168.219 258.77 168.02C258.77 167.821 258.691 167.63 258.55 167.49C258.41 167.349 258.219 167.27 258.02 167.27H254.75C254.551 167.27 254.36 167.349 254.22 167.49C254.079 167.63 254 167.821 254 168.02C254 168.219 254.079 168.41 254.22 168.55C254.36 168.691 254.551 168.77 254.75 168.77H258.02Z" fill="#E39999"/>
<path d="M256.06 163.06C255.99 163.129 255.933 163.211 255.895 163.302C255.857 163.393 255.837 163.491 255.837 163.59C255.837 163.689 255.857 163.787 255.895 163.878C255.933 163.969 255.99 164.051 256.06 164.12L258.37 166.43C258.512 166.569 258.702 166.648 258.9 166.65C259.098 166.646 259.288 166.567 259.43 166.43C259.571 166.289 259.65 166.099 259.65 165.9C259.65 165.701 259.571 165.511 259.43 165.37L257.12 163.06C257.052 162.989 256.969 162.933 256.878 162.895C256.787 162.856 256.689 162.836 256.59 162.836C256.492 162.836 256.394 162.856 256.303 162.895C256.212 162.933 256.129 162.989 256.06 163.06Z" fill="#E39999"/>
<path d="M282.27 80.75V84.02C282.27 84.2189 282.349 84.4097 282.489 84.5503C282.63 84.691 282.821 84.77 283.02 84.77C283.218 84.77 283.409 84.691 283.55 84.5503C283.691 84.4097 283.77 84.2189 283.77 84.02V80.75C283.77 80.5511 283.691 80.3603 283.55 80.2197C283.409 80.079 283.218 80 283.02 80C282.821 80 282.63 80.079 282.489 80.2197C282.349 80.3603 282.27 80.5511 282.27 80.75Z" fill="#658DDE"/>
<path d="M282.27 90.03V93.3C282.27 93.4989 282.349 93.6897 282.489 93.8304C282.63 93.971 282.821 94.05 283.02 94.05C283.218 94.05 283.409 93.971 283.55 93.8304C283.691 93.6897 283.77 93.4989 283.77 93.3V90.03C283.77 89.8311 283.691 89.6404 283.55 89.4997C283.409 89.359 283.218 89.28 283.02 89.28C282.821 89.28 282.63 89.359 282.489 89.4997C282.349 89.6404 282.27 89.8311 282.27 90.03Z" fill="#658DDE"/>
<path d="M284.62 85.43C284.761 85.5707 284.951 85.6498 285.15 85.65C285.348 85.6457 285.537 85.5672 285.68 85.43L287.99 83.12C288.131 82.9794 288.209 82.7887 288.209 82.59C288.209 82.3912 288.131 82.2006 287.99 82.06C287.921 81.9892 287.839 81.933 287.748 81.8946C287.657 81.8562 287.559 81.8364 287.46 81.8364C287.361 81.8364 287.263 81.8562 287.172 81.8946C287.081 81.933 286.999 81.9892 286.93 82.06L284.62 84.37C284.549 84.4389 284.493 84.5214 284.455 84.6124C284.416 84.7034 284.396 84.8012 284.396 84.9C284.396 84.9988 284.416 85.0966 284.455 85.1876C284.493 85.2786 284.549 85.361 284.62 85.43Z" fill="#658DDE"/>
<path d="M289.29 86.27H286.03C285.831 86.27 285.641 86.349 285.5 86.4897C285.359 86.6303 285.28 86.8211 285.28 87.02C285.28 87.2189 285.359 87.4097 285.5 87.5504C285.641 87.691 285.831 87.77 286.03 87.77H289.29C289.489 87.77 289.68 87.691 289.821 87.5504C289.961 87.4097 290.04 87.2189 290.04 87.02C290.04 86.8211 289.961 86.6303 289.821 86.4897C289.68 86.349 289.489 86.27 289.29 86.27Z" fill="#658DDE"/>
<path d="M285.68 88.61C285.539 88.4695 285.349 88.3906 285.15 88.3906C284.951 88.3906 284.761 88.4695 284.62 88.61C284.549 88.6789 284.493 88.7613 284.455 88.8524C284.416 88.9434 284.396 89.0412 284.396 89.14C284.396 89.2388 284.416 89.3366 284.455 89.4276C284.493 89.5186 284.549 89.601 284.62 89.67L286.93 91.98C286.998 92.0515 287.081 92.108 287.172 92.1459C287.263 92.1838 287.361 92.2022 287.46 92.2C287.559 92.2004 287.656 92.1812 287.747 92.1434C287.838 92.1057 287.921 92.0501 287.99 91.98C288.131 91.8393 288.209 91.6487 288.209 91.45C288.209 91.2512 288.131 91.0606 287.99 90.92L285.68 88.61Z" fill="#658DDE"/>
<path d="M280.37 88.6098L278.06 90.9198C277.99 90.9887 277.933 91.0712 277.895 91.1622C277.857 91.2532 277.837 91.351 277.837 91.4498C277.837 91.5486 277.857 91.6464 277.895 91.7374C277.933 91.8284 277.99 91.9109 278.06 91.9798C278.129 92.0513 278.211 92.1079 278.302 92.1457C278.394 92.1836 278.492 92.202 278.59 92.1998C278.689 92.2003 278.787 92.181 278.878 92.1433C278.969 92.1055 279.051 92.0499 279.12 91.9798L281.43 89.6698C281.504 89.6011 281.563 89.5183 281.604 89.4263C281.645 89.3343 281.667 89.235 281.669 89.1343C281.671 89.0336 281.652 88.9336 281.615 88.8402C281.577 88.7468 281.521 88.662 281.45 88.5908C281.378 88.5195 281.293 88.4634 281.2 88.4257C281.107 88.388 281.007 88.3694 280.906 88.3712C280.805 88.373 280.706 88.395 280.614 88.436C280.522 88.477 280.439 88.5361 280.37 88.6098Z" fill="#658DDE"/>
<path d="M280.02 87.77C280.219 87.77 280.41 87.691 280.55 87.5504C280.691 87.4097 280.77 87.2189 280.77 87.02C280.77 86.8211 280.691 86.6303 280.55 86.4897C280.41 86.349 280.219 86.27 280.02 86.27H276.75C276.551 86.27 276.36 86.349 276.22 86.4897C276.079 86.6303 276 86.8211 276 87.02C276 87.2189 276.079 87.4097 276.22 87.5504C276.36 87.691 276.551 87.77 276.75 87.77H280.02Z" fill="#658DDE"/>
<path d="M278.06 82.06C277.99 82.1289 277.933 82.2114 277.895 82.3024C277.857 82.3934 277.837 82.4912 277.837 82.59C277.837 82.6888 277.857 82.7866 277.895 82.8776C277.933 82.9686 277.99 83.0511 278.06 83.12L280.37 85.43C280.512 85.5689 280.702 85.6477 280.9 85.65C281.098 85.6457 281.288 85.5672 281.43 85.43C281.571 85.2894 281.65 85.0987 281.65 84.9C281.65 84.7012 281.571 84.5106 281.43 84.37L279.12 82.06C279.052 81.9892 278.969 81.933 278.878 81.8946C278.787 81.8562 278.689 81.8364 278.59 81.8364C278.492 81.8364 278.394 81.8562 278.303 81.8946C278.212 81.933 278.129 81.9892 278.06 82.06Z" fill="#658DDE"/>
<path d="M54.2695 0.75V4.02C54.2695 4.21891 54.3485 4.40968 54.4892 4.55033C54.6299 4.69098 54.8206 4.77 55.0195 4.77C55.2184 4.77 55.4092 4.69098 55.5499 4.55033C55.6905 4.40968 55.7695 4.21891 55.7695 4.02V0.75C55.7695 0.551088 55.6905 0.360322 55.5499 0.219669C55.4092 0.0790171 55.2184 0 55.0195 0C54.8206 0 54.6299 0.0790171 54.4892 0.219669C54.3485 0.360322 54.2695 0.551088 54.2695 0.75Z" fill="#658DDE"/>
<path d="M54.2695 10.03V13.3C54.2695 13.4989 54.3485 13.6897 54.4892 13.8304C54.6299 13.971 54.8206 14.05 55.0195 14.05C55.2184 14.05 55.4092 13.971 55.5499 13.8304C55.6905 13.6897 55.7695 13.4989 55.7695 13.3V10.03C55.7695 9.83112 55.6905 9.64035 55.5499 9.4997C55.4092 9.35905 55.2184 9.28003 55.0195 9.28003C54.8206 9.28003 54.6299 9.35905 54.4892 9.4997C54.3485 9.64035 54.2695 9.83112 54.2695 10.03Z" fill="#658DDE"/>
<path d="M56.6201 5.43C56.7606 5.57069 56.9512 5.64982 57.1501 5.65C57.3481 5.64569 57.5372 5.56717 57.6801 5.43L59.9901 3.12C60.1305 2.97937 60.2094 2.78875 60.2094 2.59C60.2094 2.39125 60.1305 2.20062 59.9901 2.06C59.9211 1.98924 59.8387 1.933 59.7477 1.89461C59.6566 1.85621 59.5588 1.83643 59.4601 1.83643C59.3613 1.83643 59.2635 1.85621 59.1724 1.89461C59.0814 1.933 58.999 1.98924 58.9301 2.06L56.6201 4.37C56.5493 4.43894 56.4931 4.52136 56.4547 4.61238C56.4163 4.70341 56.3965 4.8012 56.3965 4.9C56.3965 4.99879 56.4163 5.09658 56.4547 5.18761C56.4931 5.27863 56.5493 5.36105 56.6201 5.43Z" fill="#658DDE"/>
<path d="M61.2903 6.27002H58.0303C57.8314 6.27002 57.6406 6.34904 57.4999 6.48969C57.3593 6.63034 57.2803 6.82111 57.2803 7.02002C57.2803 7.21893 57.3593 7.4097 57.4999 7.55035C57.6406 7.691 57.8314 7.77002 58.0303 7.77002H61.2903C61.4892 7.77002 61.68 7.691 61.8206 7.55035C61.9613 7.4097 62.0403 7.21893 62.0403 7.02002C62.0403 6.82111 61.9613 6.63034 61.8206 6.48969C61.68 6.34904 61.4892 6.27002 61.2903 6.27002Z" fill="#658DDE"/>
<path d="M57.6801 8.60996C57.5394 8.46951 57.3488 8.39062 57.1501 8.39062C56.9513 8.39062 56.7607 8.46951 56.6201 8.60996C56.5493 8.67891 56.4931 8.76133 56.4547 8.85235C56.4163 8.94338 56.3965 9.04117 56.3965 9.13997C56.3965 9.23876 56.4163 9.33655 56.4547 9.42758C56.4931 9.5186 56.5493 9.60102 56.6201 9.66996L58.9301 11.98C58.9982 12.0515 59.0806 12.108 59.1718 12.1459C59.2631 12.1838 59.3613 12.2022 59.4601 12.2C59.5586 12.2004 59.6562 12.1812 59.7472 12.1434C59.8383 12.1057 59.9208 12.0501 59.9901 11.98C60.1305 11.8393 60.2094 11.6487 60.2094 11.45C60.2094 11.2512 60.1305 11.0606 59.9901 10.92L57.6801 8.60996Z" fill="#658DDE"/>
<path d="M52.3705 8.6098L50.0605 10.9198C49.9897 10.9887 49.9335 11.0712 49.8951 11.1622C49.8567 11.2532 49.8369 11.351 49.8369 11.4498C49.8369 11.5486 49.8567 11.6464 49.8951 11.7374C49.9335 11.8284 49.9897 11.9109 50.0605 11.9798C50.1287 12.0513 50.211 12.1079 50.3023 12.1457C50.3935 12.1836 50.4917 12.202 50.5905 12.1998C50.689 12.2003 50.7867 12.181 50.8777 12.1433C50.9687 12.1055 51.0512 12.0499 51.1205 11.9798L53.4305 9.6698C53.5042 9.60114 53.5633 9.51834 53.6043 9.42634C53.6453 9.33434 53.6673 9.23503 53.6691 9.13433C53.6709 9.03362 53.6523 8.93359 53.6146 8.8402C53.5769 8.74682 53.5207 8.66198 53.4495 8.59076C53.3783 8.51954 53.2935 8.4634 53.2001 8.42568C53.1067 8.38796 53.0067 8.36943 52.906 8.37121C52.8053 8.37299 52.7059 8.39503 52.6139 8.43602C52.5219 8.47701 52.4391 8.53612 52.3705 8.6098Z" fill="#658DDE"/>
<path d="M52.02 7.77002C52.2189 7.77002 52.4097 7.691 52.5503 7.55035C52.691 7.4097 52.77 7.21893 52.77 7.02002C52.77 6.82111 52.691 6.63034 52.5503 6.48969C52.4097 6.34904 52.2189 6.27002 52.02 6.27002H48.75C48.5511 6.27002 48.3603 6.34904 48.2197 6.48969C48.079 6.63034 48 6.82111 48 7.02002C48 7.21893 48.079 7.4097 48.2197 7.55035C48.3603 7.691 48.5511 7.77002 48.75 7.77002H52.02Z" fill="#658DDE"/>
<path d="M50.0605 2.06C49.9897 2.12894 49.9335 2.21136 49.8951 2.30238C49.8567 2.39341 49.8369 2.4912 49.8369 2.59C49.8369 2.68879 49.8567 2.78658 49.8951 2.87761C49.9335 2.96863 49.9897 3.05105 50.0605 3.12L52.3705 5.43C52.5122 5.56888 52.7021 5.64769 52.9005 5.65C53.0985 5.64569 53.2876 5.56717 53.4305 5.43C53.5709 5.28937 53.6498 5.09875 53.6498 4.9C53.6498 4.70125 53.5709 4.51062 53.4305 4.37L51.1205 2.06C51.0515 1.98924 50.9691 1.933 50.8781 1.89461C50.7871 1.85621 50.6893 1.83643 50.5905 1.83643C50.4917 1.83643 50.3939 1.85621 50.3029 1.89461C50.2118 1.933 50.1294 1.98924 50.0605 2.06Z" fill="#658DDE"/>
<circle cx="78.5" cy="24.5" r="2.5" fill="#8EFF9A"/>
<circle cx="209.5" cy="68.5" r="2.5" fill="#82D5EF"/>
<circle cx="43.5" cy="190.5" r="2.5" fill="#82D5EF"/>
<circle cx="235.5" cy="42.5" r="2.5" fill="#E89EBB"/>
<circle cx="74" cy="58" r="3.5" stroke="#7A9DE3"/>
<circle cx="276.5" cy="120.5" r="2" stroke="#C06EF2"/>
<circle cx="16.5" cy="168.5" r="2" stroke="#C06EF2"/>
<circle cx="258.5" cy="65.5" r="2" stroke="#EEDB98"/>
<circle cx="166.5" cy="16.5" r="2" stroke="#7A9DE3"/>
<circle cx="2.5" cy="81.5" r="2" stroke="#F4A5F1"/>
<circle cx="37.5" cy="51.5" r="2" stroke="#F4A5F1"/>
<circle cx="68.5" cy="92.5" r="2" stroke="#F9D6CE"/>
<circle cx="48.5" cy="131.5" r="2" stroke="#F9D6CE"/>
<circle cx="72" cy="151" r="3.5" stroke="#8EE297"/>
<circle cx="9" cy="24" r="3.5" stroke="#8EE297"/>
<circle cx="237" cy="108" r="3.5" stroke="#E39999"/>
<circle cx="217.5" cy="154.5" r="2.5" fill="#779ADF"/>
</svg>
