<svg width="28" height="27" viewBox="0 0 28 27" fill="none" xmlns="http://www.w3.org/2000/svg">
<path d="M15.1875 1.16435C14.5314 0.539294 13.4677 0.539294 12.8116 1.16435L1.05163 12.3682C0.39555 12.9932 0.39555 14.0066 1.05163 14.6317C1.70771 15.2567 2.77143 15.2567 3.42751 14.6317L3.91957 14.1629V24.7037C3.91957 25.5877 4.67173 26.3043 5.59957 26.3043H8.95957C9.88741 26.3043 10.6396 25.5877 10.6396 24.7037V21.5026C10.6396 20.6187 11.3917 19.9021 12.3196 19.9021H15.6796C16.6074 19.9021 17.3596 20.6187 17.3596 21.5026V24.7037C17.3596 25.5877 18.1117 26.3043 19.0396 26.3043H22.3996C23.3274 26.3043 24.0796 25.5877 24.0796 24.7037V14.1629L24.5716 14.6317C25.2277 15.2567 26.2914 15.2567 26.9475 14.6317C27.6036 14.0066 27.6036 12.9932 26.9475 12.3682L15.1875 1.16435Z" fill="#F2F2F2"/>
</svg>
