<svg width="188" height="40" viewBox="0 0 188 40" fill="none" xmlns="http://www.w3.org/2000/svg">
<g clip-path="url(#clip0_631_4309)">
<path d="M19.4141 10.875C21.237 10.9792 22.7344 11.6823 23.9062 12.9844C25.0781 14.2604 25.9245 15.7188 26.4453 17.3594C26.9661 19 27.2266 20.6797 27.2266 22.3984C27.2266 24.1172 26.9661 25.7969 26.4453 27.4375C25.9505 29.0781 25.1042 30.5495 23.9062 31.8516C22.7344 33.1276 21.237 33.8177 19.4141 33.9219H5.03906C4.33594 33.8958 3.73698 33.6484 3.24219 33.1797C2.77344 32.6849 2.52604 32.0859 2.5 31.3828V21.6953C2.52604 20.9661 2.79948 20.3672 3.32031 19.8984C3.84115 19.4036 4.46615 19.1562 5.19531 19.1562C5.89844 19.1823 6.4974 19.4427 6.99219 19.9375C7.48698 20.4062 7.7474 20.9922 7.77344 21.6953V27.6328C7.77344 28.3359 8.13802 28.6875 8.86719 28.6875H18.0859C19.0755 28.6354 19.8958 28.2578 20.5469 27.5547C21.1979 26.8516 21.6667 26.0573 21.9531 25.1719C22.2656 24.2604 22.4219 23.3359 22.4219 22.3984C22.4219 21.4609 22.2656 20.5495 21.9531 19.6641C21.6667 18.7526 21.1979 17.9453 20.5469 17.2422C19.8958 16.5391 19.0755 16.1615 18.0859 16.1094H5.03906C3.47656 15.9792 2.63021 15.1328 2.5 13.5703C2.5 12.8411 2.73438 12.2161 3.20312 11.6953C3.69792 11.1745 4.3099 10.901 5.03906 10.875H19.4141ZM52.4609 10.875C53.7891 10.901 54.974 11.3177 56.0156 12.125C57.0573 12.9323 57.8906 13.8958 58.5156 15.0156C59.1667 16.1354 59.6484 17.3203 59.9609 18.5703C60.2734 19.8203 60.4297 21.0964 60.4297 22.3984C60.4297 24.1172 60.1562 25.8099 59.6094 27.4766C59.0885 29.1172 58.2161 30.5755 56.9922 31.8516C55.7943 33.1276 54.2839 33.8177 52.4609 33.9219H38.8281C37.0052 33.8438 35.4818 33.1667 34.2578 31.8906C33.0339 30.6146 32.1615 29.1432 31.6406 27.4766C31.1458 25.8099 30.8984 24.1172 30.8984 22.3984C30.8984 20.6797 31.1589 19 31.6797 17.3594C32.2005 15.6927 33.0599 14.2214 34.2578 12.9453C35.4818 11.6432 37.0052 10.9531 38.8281 10.875H39.5703H51.7188H52.4609ZM51.1328 28.6875C52.1224 28.6354 52.9427 28.2708 53.5938 27.5938C54.2708 26.8906 54.7526 26.0833 55.0391 25.1719C55.3255 24.2604 55.4688 23.3359 55.4688 22.3984C55.4688 21.4609 55.3125 20.5495 55 19.6641C54.7135 18.7526 54.2448 17.9453 53.5938 17.2422C52.9427 16.5391 52.1224 16.1615 51.1328 16.1094H40.0391C39.0495 16.1615 38.2292 16.5391 37.5781 17.2422C36.9271 17.9453 36.4453 18.7526 36.1328 19.6641C35.8464 20.5495 35.7031 21.4609 35.7031 22.3984C35.7031 23.3359 35.8464 24.2604 36.1328 25.1719C36.4193 26.0833 36.888 26.8906 37.5391 27.5938C38.2161 28.2708 39.0495 28.6354 40.0391 28.6875H51.1328ZM63.9453 13.4922C63.9453 12.763 64.1927 12.151 64.6875 11.6562C65.2083 11.1354 65.8333 10.875 66.5625 10.875H89.2969C90.026 10.875 90.651 11.1224 91.1719 11.6172C91.6667 12.138 91.9141 12.763 91.9141 13.4922C91.9141 14.2214 91.6536 14.8464 91.1328 15.3672C90.638 15.862 90.026 16.1094 89.2969 16.1094H80.5859V31.9297C80.4297 33.4922 79.5703 34.3385 78.0078 34.4688C77.2786 34.4688 76.6406 34.2344 76.0938 33.7656C75.5729 33.2708 75.3125 32.6589 75.3125 31.9297V16.1094H66.5625C65.8333 16.1094 65.2214 15.849 64.7266 15.3281C64.2057 14.8333 63.9453 14.2214 63.9453 13.4922ZM116.992 10.875C118.32 10.901 119.505 11.3177 120.547 12.125C121.589 12.9323 122.422 13.8958 123.047 15.0156C123.698 16.1354 124.18 17.3203 124.492 18.5703C124.805 19.8203 124.961 21.0964 124.961 22.3984C124.961 24.1172 124.688 25.8099 124.141 27.4766C123.62 29.1172 122.747 30.5755 121.523 31.8516C120.326 33.1276 118.815 33.8177 116.992 33.9219H103.359C101.536 33.8438 100.013 33.1667 98.7891 31.8906C97.5651 30.6146 96.6927 29.1432 96.1719 27.4766C95.6771 25.8099 95.4297 24.1172 95.4297 22.3984C95.4297 20.6797 95.6901 19 96.2109 17.3594C96.7318 15.6927 97.5911 14.2214 98.7891 12.9453C100.013 11.6432 101.536 10.9531 103.359 10.875H104.102H116.25H116.992ZM115.664 28.6875C116.654 28.6354 117.474 28.2708 118.125 27.5938C118.802 26.8906 119.284 26.0833 119.57 25.1719C119.857 24.2604 120 23.3359 120 22.3984C120 21.4609 119.844 20.5495 119.531 19.6641C119.245 18.7526 118.776 17.9453 118.125 17.2422C117.474 16.5391 116.654 16.1615 115.664 16.1094H104.57C103.581 16.1615 102.76 16.5391 102.109 17.2422C101.458 17.9453 100.977 18.7526 100.664 19.6641C100.378 20.5495 100.234 21.4609 100.234 22.3984C100.234 23.3359 100.378 24.2604 100.664 25.1719C100.951 26.0833 101.419 26.8906 102.07 27.5938C102.747 28.2708 103.581 28.6354 104.57 28.6875H115.664Z" fill="#717171"/>
<g filter="url(#filter0_d_631_4309)">
<path d="M144.617 34.507C143.636 34.5072 142.741 33.9452 142.332 33.0531C141.494 31.2241 140.166 28.2099 140.076 27.2766C139.862 25.1109 140.15 21.8083 140.331 20.9324C140.597 19.633 141.774 16.9884 143.425 15.5183C145.076 14.0482 145.733 14.0074 147.079 11.9901C148.425 9.97287 150.44 7.67853 151.402 6.7613C152.363 5.84407 152.915 5.61477 153.878 5.52304C154.841 5.43132 155.116 5.52304 156.08 6.1651C157.043 6.80716 157.545 8.04542 158.373 8.91678C159.201 9.78815 159.061 9.83401 159.611 9.87987C160.161 9.92573 160.62 9.78815 161.17 9.6047C161.72 9.42126 162.364 8.73334 164.014 7.5868C165.663 6.44027 165.988 6.07338 167.453 5.98166C168.918 5.88993 169.976 5.84407 170.939 6.94475C171.902 8.04542 172.281 9.14609 172.688 10.2926C173.094 11.4392 173.002 11.8519 173.553 12.3105C174.103 12.7691 176.443 13.8239 177.91 14.6036C179.378 15.3832 182.91 17.6304 184.263 20.5197C185.615 23.409 186.348 23.6408 186.898 26.9861C187.155 28.5484 187.382 30.2892 187.551 31.7012C187.73 33.1968 186.555 34.4963 185.049 34.4967L144.617 34.507Z" fill="#F2F2F2"/>
<g filter="url(#filter1_d_631_4309)">
<path d="M162.586 18.6088C162.372 18.6088 161.503 18.6942 161.022 19.098C160.46 19.5732 160.106 20.4636 160.055 20.7732C159.97 21.3631 159.917 21.9572 159.895 22.5529C159.864 23.279 160.094 23.9217 160.163 24.1313C160.364 24.7389 161.16 25.6867 161.711 25.8396C162.261 25.9925 163.664 26.0345 164.061 25.8511C164.459 25.6676 165.144 24.9937 165.261 24.6014C165.406 24.1141 165.749 22.7542 165.565 21.6235C165.383 20.5031 165.129 19.6069 164.599 19.1591C163.931 18.5935 162.586 18.6088 162.586 18.6088Z" fill="#14172B"/>
<path d="M144.975 17.875C143.701 18.1196 143.332 18.8381 143.026 19.2661C142.72 19.6942 142.078 21.0394 142.124 21.9414C142.17 22.8433 142.69 24.2497 143.133 24.6472C143.577 25.0447 144.677 25.1975 145.029 25.0599C145.38 24.9224 146.058 24.4465 146.504 23.5191C146.951 22.5917 147.051 21.9006 147.055 21.2413C147.059 20.5821 147.146 20.2324 146.955 19.491C146.782 18.8215 146.68 18.589 146.313 18.3139C145.946 18.0387 144.975 17.875 144.975 17.875Z" fill="#14172B"/>
</g>
</g>
</g>
<defs>
<filter id="filter0_d_631_4309" x="138.344" y="3.83682" width="51.3911" height="32.8358" filterUnits="userSpaceOnUse" color-interpolation-filters="sRGB">
<feFlood flood-opacity="0" result="BackgroundImageFix"/>
<feColorMatrix in="SourceAlpha" type="matrix" values="0 0 0 0 0 0 0 0 0 0 0 0 0 0 0 0 0 0 127 0" result="hardAlpha"/>
<feOffset dx="0.254785" dy="0.254785"/>
<feGaussianBlur stdDeviation="0.955444"/>
<feComposite in2="hardAlpha" operator="out"/>
<feColorMatrix type="matrix" values="0 0 0 0 0 0 0 0 0 0 0 0 0 0 0 0 0 0 0.25 0"/>
<feBlend mode="normal" in2="BackgroundImageFix" result="effect1_dropShadow_631_4309"/>
<feBlend mode="normal" in="SourceGraphic" in2="effect1_dropShadow_631_4309" result="shape"/>
</filter>
<filter id="filter1_d_631_4309" x="140.466" y="16.2189" width="27.3176" height="11.9191" filterUnits="userSpaceOnUse" color-interpolation-filters="sRGB">
<feFlood flood-opacity="0" result="BackgroundImageFix"/>
<feColorMatrix in="SourceAlpha" type="matrix" values="0 0 0 0 0 0 0 0 0 0 0 0 0 0 0 0 0 0 127 0" result="hardAlpha"/>
<feOffset dx="0.254785" dy="0.254785"/>
<feGaussianBlur stdDeviation="0.955444"/>
<feComposite in2="hardAlpha" operator="out"/>
<feColorMatrix type="matrix" values="0 0 0 0 0 0 0 0 0 0 0 0 0 0 0 0 0 0 0.25 0"/>
<feBlend mode="normal" in2="BackgroundImageFix" result="effect1_dropShadow_631_4309"/>
<feBlend mode="normal" in="SourceGraphic" in2="effect1_dropShadow_631_4309" result="shape"/>
</filter>
<clipPath id="clip0_631_4309">
<rect width="187.569" height="40" fill="white"/>
</clipPath>
</defs>
</svg>
