<svg width="110" height="71" viewBox="0 0 110 71" fill="none" xmlns="http://www.w3.org/2000/svg">
<g filter="url(#filter0_d_374_1361)">
<path d="M5.59378 35.1346C4.61733 35.1349 3.72754 34.4737 3.32063 33.4241C2.48641 31.2723 1.16519 27.7261 1.07545 26.6281C0.862509 24.0803 1.14959 20.1947 1.32894 19.1644C1.59385 17.6356 2.76501 14.5242 4.40767 12.7947C6.05033 11.0651 6.70372 11.0171 8.04282 8.64386C9.38192 6.27058 11.3877 3.57133 12.344 2.49223C13.3004 1.41313 13.8498 1.14335 14.808 1.03544C15.7663 0.92753 16.04 1.03544 16.9983 1.79081C17.9565 2.54618 18.4559 4.00297 19.2797 5.02812C20.1036 6.05326 19.9642 6.10722 20.5117 6.16117C21.0593 6.21513 21.5156 6.05326 22.0631 5.83744C22.6107 5.62162 23.2514 4.8123 24.8922 3.46342C26.5329 2.11454 26.8568 1.6829 28.3144 1.57499C29.772 1.46708 30.824 1.41313 31.7822 2.70805C32.7404 4.00297 33.1182 5.29789 33.5225 6.64677C33.9268 7.99565 33.8356 8.48124 34.3831 9.02079C34.9307 9.56034 37.2584 10.8013 38.7185 11.7185C40.1787 12.6358 43.6934 15.2796 45.0389 18.6788C46.3843 22.0779 47.1138 22.3507 47.6613 26.2864C47.917 28.1244 48.1429 30.1725 48.311 31.8336C48.489 33.5931 47.3202 35.122 45.8216 35.1224L5.59378 35.1346Z" fill="#F2F2F2"/>
<g filter="url(#filter1_d_374_1361)">
<path d="M23.4718 16.4307C23.2589 16.4307 22.3944 16.5311 21.916 17.0062C21.357 17.5653 21.0046 18.6129 20.9539 18.9771C20.869 19.6711 20.8159 20.37 20.7949 21.0708C20.7638 21.9251 20.992 22.6813 21.0611 22.9278C21.2607 23.6427 22.0535 24.7578 22.601 24.9376C23.1486 25.1175 24.5441 25.1669 24.9396 24.9511C25.335 24.7353 26.0169 23.9425 26.1335 23.4808C26.2774 22.9076 26.6183 21.3077 26.4358 19.9775C26.2546 18.6594 26.0017 17.605 25.4751 17.0782C24.8103 16.4127 23.4718 16.4307 23.4718 16.4307Z" fill="#202225"/>
<path d="M5.95029 15.5674C4.6828 15.8551 4.31523 16.7004 4.01103 17.204C3.70683 17.7076 3.06802 19.2903 3.11365 20.3514C3.15928 21.4125 3.67641 23.0671 4.1175 23.5347C4.55858 24.0024 5.65369 24.1822 6.00352 24.0203C6.35335 23.8585 7.02702 23.2987 7.47127 22.2076C7.91552 21.1165 8.01502 20.3034 8.01946 19.5278C8.02389 18.7522 8.11008 18.3408 7.91996 17.4685C7.74822 16.681 7.64618 16.4074 7.28115 16.0837C6.91611 15.76 5.95029 15.5674 5.95029 15.5674Z" fill="#202225"/>
</g>
</g>
<path d="M16.5312 44.5C17.9896 44.5833 19.1875 45.1458 20.125 46.1875C21.0625 47.2083 21.7396 48.375 22.1562 49.6875C22.5729 51 22.7812 52.3438 22.7812 53.7188C22.7812 55.0938 22.5729 56.4375 22.1562 57.75C21.7604 59.0625 21.0833 60.2396 20.125 61.2812C19.1875 62.3021 17.9896 62.8542 16.5312 62.9375H5.03125C4.46875 62.9167 3.98958 62.7188 3.59375 62.3438C3.21875 61.9479 3.02083 61.4688 3 60.9062V53.1562C3.02083 52.5729 3.23958 52.0938 3.65625 51.7188C4.07292 51.3229 4.57292 51.125 5.15625 51.125C5.71875 51.1458 6.19792 51.3542 6.59375 51.75C6.98958 52.125 7.19792 52.5938 7.21875 53.1562V57.9062C7.21875 58.4688 7.51042 58.75 8.09375 58.75H15.4688C16.2604 58.7083 16.9167 58.4062 17.4375 57.8438C17.9583 57.2812 18.3333 56.6458 18.5625 55.9375C18.8125 55.2083 18.9375 54.4688 18.9375 53.7188C18.9375 52.9688 18.8125 52.2396 18.5625 51.5312C18.3333 50.8021 17.9583 50.1562 17.4375 49.5938C16.9167 49.0312 16.2604 48.7292 15.4688 48.6875H5.03125C3.78125 48.5833 3.10417 47.9062 3 46.6562C3 46.0729 3.1875 45.5729 3.5625 45.1562C3.95833 44.7396 4.44792 44.5208 5.03125 44.5H16.5312ZM42.9688 44.5C44.0312 44.5208 44.9792 44.8542 45.8125 45.5C46.6458 46.1458 47.3125 46.9167 47.8125 47.8125C48.3333 48.7083 48.7188 49.6562 48.9688 50.6562C49.2188 51.6562 49.3438 52.6771 49.3438 53.7188C49.3438 55.0938 49.125 56.4479 48.6875 57.7812C48.2708 59.0938 47.5729 60.2604 46.5938 61.2812C45.6354 62.3021 44.4271 62.8542 42.9688 62.9375H32.0625C30.6042 62.875 29.3854 62.3333 28.4062 61.3125C27.4271 60.2917 26.7292 59.1146 26.3125 57.7812C25.9167 56.4479 25.7188 55.0938 25.7188 53.7188C25.7188 52.3438 25.9271 51 26.3438 49.6875C26.7604 48.3542 27.4479 47.1771 28.4062 46.1562C29.3854 45.1146 30.6042 44.5625 32.0625 44.5H32.6562H42.375H42.9688ZM41.9062 58.75C42.6979 58.7083 43.3542 58.4167 43.875 57.875C44.4167 57.3125 44.8021 56.6667 45.0312 55.9375C45.2604 55.2083 45.375 54.4688 45.375 53.7188C45.375 52.9688 45.25 52.2396 45 51.5312C44.7708 50.8021 44.3958 50.1562 43.875 49.5938C43.3542 49.0312 42.6979 48.7292 41.9062 48.6875H33.0312C32.2396 48.7292 31.5833 49.0312 31.0625 49.5938C30.5417 50.1562 30.1562 50.8021 29.9062 51.5312C29.6771 52.2396 29.5625 52.9688 29.5625 53.7188C29.5625 54.4688 29.6771 55.2083 29.9062 55.9375C30.1354 56.6667 30.5104 57.3125 31.0312 57.875C31.5729 58.4167 32.2396 58.7083 33.0312 58.75H41.9062ZM52.1562 46.5938C52.1562 46.0104 52.3542 45.5208 52.75 45.125C53.1667 44.7083 53.6667 44.5 54.25 44.5H72.4375C73.0208 44.5 73.5208 44.6979 73.9375 45.0938C74.3333 45.5104 74.5312 46.0104 74.5312 46.5938C74.5312 47.1771 74.3229 47.6771 73.9062 48.0938C73.5104 48.4896 73.0208 48.6875 72.4375 48.6875H65.4688V61.3438C65.3438 62.5938 64.6562 63.2708 63.4062 63.375C62.8229 63.375 62.3125 63.1875 61.875 62.8125C61.4583 62.4167 61.25 61.9271 61.25 61.3438V48.6875H54.25C53.6667 48.6875 53.1771 48.4792 52.7812 48.0625C52.3646 47.6667 52.1562 47.1771 52.1562 46.5938ZM94.5938 44.5C95.6562 44.5208 96.6042 44.8542 97.4375 45.5C98.2708 46.1458 98.9375 46.9167 99.4375 47.8125C99.9583 48.7083 100.344 49.6562 100.594 50.6562C100.844 51.6562 100.969 52.6771 100.969 53.7188C100.969 55.0938 100.75 56.4479 100.312 57.7812C99.8958 59.0938 99.1979 60.2604 98.2188 61.2812C97.2604 62.3021 96.0521 62.8542 94.5938 62.9375H83.6875C82.2292 62.875 81.0104 62.3333 80.0312 61.3125C79.0521 60.2917 78.3542 59.1146 77.9375 57.7812C77.5417 56.4479 77.3438 55.0938 77.3438 53.7188C77.3438 52.3438 77.5521 51 77.9688 49.6875C78.3854 48.3542 79.0729 47.1771 80.0312 46.1562C81.0104 45.1146 82.2292 44.5625 83.6875 44.5H84.2812H94H94.5938ZM93.5312 58.75C94.3229 58.7083 94.9792 58.4167 95.5 57.875C96.0417 57.3125 96.4271 56.6667 96.6562 55.9375C96.8854 55.2083 97 54.4688 97 53.7188C97 52.9688 96.875 52.2396 96.625 51.5312C96.3958 50.8021 96.0208 50.1562 95.5 49.5938C94.9792 49.0312 94.3229 48.7292 93.5312 48.6875H84.6562C83.8646 48.7292 83.2083 49.0312 82.6875 49.5938C82.1667 50.1562 81.7812 50.8021 81.5312 51.5312C81.3021 52.2396 81.1875 52.9688 81.1875 53.7188C81.1875 54.4688 81.3021 55.2083 81.5312 55.9375C81.7604 56.6667 82.1354 57.3125 82.6562 57.875C83.1979 58.4167 83.8646 58.7083 84.6562 58.75H93.5312Z" fill="#909090"/>
<defs>
<filter id="filter0_d_374_1361" x="0.124642" y="0.124642" width="49.3492" height="36.1548" filterUnits="userSpaceOnUse" color-interpolation-filters="sRGB">
<feFlood flood-opacity="0" result="BackgroundImageFix"/>
<feColorMatrix in="SourceAlpha" type="matrix" values="0 0 0 0 0 0 0 0 0 0 0 0 0 0 0 0 0 0 127 0" result="hardAlpha"/>
<feOffset dx="0.134671" dy="0.134671"/>
<feGaussianBlur stdDeviation="0.505014"/>
<feComposite in2="hardAlpha" operator="out"/>
<feColorMatrix type="matrix" values="0 0 0 0 0 0 0 0 0 0 0 0 0 0 0 0 0 0 0.25 0"/>
<feBlend mode="normal" in2="BackgroundImageFix" result="effect1_dropShadow_374_1361"/>
<feBlend mode="normal" in="SourceGraphic" in2="effect1_dropShadow_374_1361" result="shape"/>
</filter>
<filter id="filter1_d_374_1361" x="2.23597" y="14.692" width="25.397" height="11.5464" filterUnits="userSpaceOnUse" color-interpolation-filters="sRGB">
<feFlood flood-opacity="0" result="BackgroundImageFix"/>
<feColorMatrix in="SourceAlpha" type="matrix" values="0 0 0 0 0 0 0 0 0 0 0 0 0 0 0 0 0 0 127 0" result="hardAlpha"/>
<feOffset dx="0.134671" dy="0.134671"/>
<feGaussianBlur stdDeviation="0.505014"/>
<feComposite in2="hardAlpha" operator="out"/>
<feColorMatrix type="matrix" values="0 0 0 0 0 0 0 0 0 0 0 0 0 0 0 0 0 0 0.25 0"/>
<feBlend mode="normal" in2="BackgroundImageFix" result="effect1_dropShadow_374_1361"/>
<feBlend mode="normal" in="SourceGraphic" in2="effect1_dropShadow_374_1361" result="shape"/>
</filter>
</defs>
</svg>
