<svg width="15" height="15" viewBox="0 0 15 15" fill="none" xmlns="http://www.w3.org/2000/svg">
<path fill-rule="evenodd" clip-rule="evenodd" d="M14.7803 0.215062C15.0732 0.50181 15.0732 0.966722 14.7803 1.25347L8.3999 7.49999L14.7803 13.7465C15.0732 14.0333 15.0732 14.4982 14.7803 14.7849C14.4874 15.0717 14.0125 15.0717 13.7196 14.7849L7.5 8.69578L1.28036 14.7849C0.987467 15.0717 0.512594 15.0717 0.2197 14.7849C-0.0731928 14.4982 -0.0731928 14.0333 0.2197 13.7465L6.60007 7.50001L0.21967 1.25347C-0.0732233 0.966722 -0.0732233 0.50181 0.21967 0.215062C0.512563 -0.0716872 0.987437 -0.0716872 1.28033 0.215062L7.49997 6.30422L13.7196 0.215062C14.0125 -0.0716872 14.4874 -0.0716872 14.7803 0.215062Z" fill="#72767D"/>
</svg>
