<svg width="32" height="32" viewBox="0 0 32 32" fill="none" xmlns="http://www.w3.org/2000/svg">
<path d="M27.8629 4.13727C26.6133 2.88759 24.5871 2.88759 23.3375 4.13727L11.2002 16.2745V20.8H15.7257L27.8629 8.66275C29.1126 7.41308 29.1126 5.38695 27.8629 4.13727Z" fill="#616161"/>
<path fill-rule="evenodd" clip-rule="evenodd" d="M3.2002 9.60001C3.2002 7.8327 4.63288 6.40001 6.4002 6.40001H12.8002C13.6839 6.40001 14.4002 7.11636 14.4002 8.00001C14.4002 8.88367 13.6839 9.60001 12.8002 9.60001H6.4002V25.6H22.4002V19.2C22.4002 18.3164 23.1165 17.6 24.0002 17.6C24.8839 17.6 25.6002 18.3164 25.6002 19.2V25.6C25.6002 27.3673 24.1675 28.8 22.4002 28.8H6.4002C4.63288 28.8 3.2002 27.3673 3.2002 25.6V9.60001Z" fill="#616161"/>
</svg>
