<svg width="16" height="16" viewBox="0 0 16 16" fill="none" xmlns="http://www.w3.org/2000/svg">
<path d="M13.972 10.2167C14.108 9.89271 13.7193 9.61671 13.3933 9.76071C12.7417 10.0467 12.0376 10.1939 11.326 10.1927C8.536 10.1927 6.27467 7.97671 6.27467 5.24271C6.27364 4.3196 6.5359 3.41535 7.03067 2.63604C7.22 2.33737 6.99267 1.92404 6.646 2.01204C3.97333 2.69404 2 5.07537 2 7.90804C2 11.2727 4.78333 14 8.21733 14C10.8173 14 13.044 12.4367 13.972 10.2167Z" fill="#E7E7E7"/>
<path d="M10.4073 2.06853C10.054 1.83253 9.63267 2.25386 9.86801 2.6072L10.288 3.2372C10.4584 3.49264 10.5493 3.79281 10.5493 4.09986C10.5493 4.40691 10.4584 4.70709 10.288 4.96253L9.86801 5.59253C9.63267 5.94586 10.0547 6.3672 10.408 6.1312L11.0373 5.7112C11.2928 5.54082 11.593 5.4499 11.9 5.4499C12.2071 5.4499 12.5072 5.54082 12.7627 5.7112L13.3927 6.1312C13.746 6.3672 14.1673 5.94586 13.9313 5.59253L13.5113 4.96253C13.341 4.70709 13.25 4.40691 13.25 4.09986C13.25 3.79281 13.341 3.49264 13.5113 3.2372L13.9313 2.6072C14.1673 2.25386 13.746 1.83253 13.392 2.06853L12.7627 2.48853C12.5072 2.65891 12.2071 2.74983 11.9 2.74983C11.593 2.74983 11.2928 2.65891 11.0373 2.48853L10.4073 2.06853Z" fill="#E7E7E7"/>
</svg>
