<svg width="110" height="71" viewBox="0 0 110 71" fill="none" xmlns="http://www.w3.org/2000/svg">
<g filter="url(#filter0_d_946_3067)">
<path d="M13.8031 65.5467C11.7194 65.5473 9.82057 64.3551 8.95222 62.4626C7.17199 58.5828 4.35252 52.1888 4.161 50.2091C3.70659 45.6151 4.31924 38.6093 4.70197 36.7514C5.26727 33.9951 7.76653 28.385 11.272 25.2665C14.7774 22.148 16.1718 22.0615 19.0294 17.7823C21.887 13.5032 26.1674 8.63627 28.2082 6.69058C30.249 4.74489 31.4215 4.25847 33.4664 4.0639C35.5112 3.86933 36.0955 4.0639 38.1403 5.42588C40.1851 6.78786 41.2508 9.41454 43.009 11.2629C44.7671 13.1113 44.4696 13.2086 45.6381 13.3059C46.8065 13.4032 47.7803 13.1113 48.9487 12.7222C50.1172 12.3331 51.4845 10.8738 54.9859 8.4417C58.4873 6.00959 59.1784 5.23131 62.2889 5.03675C65.3995 4.84218 67.6445 4.74489 69.6893 7.07972C71.7341 9.41454 72.5402 11.7494 73.403 14.1815C74.2659 16.6136 74.0711 17.4891 75.2396 18.462C76.4081 19.4348 81.3755 21.6724 84.4914 23.3262C87.6074 24.98 95.1078 29.747 97.979 35.8759C100.85 42.0048 102.407 42.4966 103.575 49.593C104.121 52.9069 104.603 56.5998 104.962 59.5949C105.342 62.7674 102.847 65.524 99.6493 65.5248L13.8031 65.5467Z" fill="url(#paint0_linear_946_3067)"/>
<g filter="url(#filter1_d_946_3067)">
<path d="M51.9551 31.879C51.5007 31.879 49.656 32.0604 48.6349 32.9188C47.4421 33.9288 46.6901 35.8216 46.5819 36.4796C46.4006 37.7335 46.2873 38.9963 46.2425 40.2624C46.1762 41.8059 46.6631 43.172 46.8105 43.6174C47.2365 44.9091 48.9284 46.9237 50.0969 47.2486C51.2653 47.5736 54.2433 47.6629 55.0872 47.273C55.9312 46.8831 57.3863 45.4506 57.6352 44.6166C57.9422 43.5809 58.6698 40.6903 58.2803 38.2871C57.8935 35.9055 57.3539 34.0006 56.23 33.0488C54.8114 31.8465 51.9551 31.879 51.9551 31.879Z" fill="black" fill-opacity="0.75"/>
<path d="M14.5642 30.3193C11.8594 30.8392 11.075 32.3665 10.4258 33.2763C9.77667 34.1861 8.41344 37.0456 8.51081 38.9627C8.60819 40.8799 9.71175 43.8693 10.653 44.7142C11.5943 45.559 13.9313 45.884 14.6778 45.5915C15.4243 45.2991 16.8619 44.2877 17.81 42.3164C18.758 40.3451 18.9703 38.8761 18.9798 37.4748C18.9893 36.0735 19.1732 35.3302 18.7675 33.7542C18.401 32.3313 18.1832 31.8371 17.4043 31.2522C16.6253 30.6673 14.5642 30.3193 14.5642 30.3193Z" fill="black" fill-opacity="0.75"/>
<path d="M33.5472 43.1856C33.3814 43.1856 33.2158 43.172 33.0522 43.145C31.9189 42.965 30.9343 42.1634 30.3934 40.9937L29.9674 41.5826C29.9523 41.6043 29.936 41.6251 29.9187 41.6449C29.0261 42.7009 28.1132 42.9013 27.5073 42.8864C26.9014 42.8715 25.9859 42.6156 25.1338 41.4919C25.1136 41.4648 25.0946 41.4364 25.077 41.4079L23.8152 39.3094C23.6858 39.0939 23.6471 38.8358 23.7077 38.5918C23.7683 38.3478 23.9233 38.1379 24.1385 38.0083C24.3537 37.8786 24.6115 37.8399 24.8552 37.9006C25.099 37.9613 25.3086 38.1164 25.4381 38.3319L26.6729 40.383C26.9731 40.7689 27.2869 40.9842 27.5587 40.9909C27.9117 41.0004 28.262 40.6674 28.4527 40.4494L29.5616 38.9046C29.5767 38.8825 29.5929 38.8612 29.6103 38.8409C29.7401 38.6722 29.9127 38.5415 30.1101 38.4624C30.3076 38.3834 30.5227 38.3588 30.7328 38.3914C31.4631 38.516 31.739 39.2336 31.9595 39.8103C31.9973 39.9105 32.0352 40.0094 32.0744 40.1014L32.0825 40.1217C32.353 40.7675 32.8196 41.1886 33.3551 41.2739C33.8001 41.3457 34.2423 41.1642 34.5994 40.7635L36.4075 38.4347C36.5616 38.2362 36.7881 38.107 37.0373 38.0756C37.2865 38.0443 37.5379 38.1133 37.7363 38.2675C37.9346 38.4218 38.0636 38.6486 38.095 38.898C38.1263 39.1475 38.0573 39.3992 37.9033 39.5978L36.0762 41.9495C36.0657 41.9641 36.0544 41.9781 36.0424 41.9915C35.7376 42.3595 35.3566 42.6568 34.9258 42.863C34.495 43.0692 34.0246 43.1793 33.5472 43.1856Z" fill="black" fill-opacity="0.75"/>
</g>
<path d="M39.8067 65.648C37.9837 62.7087 34.3281 60.7008 30.114 60.7008C25.8999 60.7008 22.243 62.7087 20.4199 65.648H39.8067Z" fill="white"/>
<g opacity="0.2">
<path d="M96.8782 33.9678C95.0904 35.7645 93.362 37.6505 93.0158 38.5711C92.2368 40.6183 92.1881 42.5192 92.7723 43.2015C93.3566 43.8839 93.4053 44.5663 94.5305 44.615C95.6557 44.6638 96.1371 44.8587 97.7438 43.9381C98.324 43.605 99.5993 42.6776 100.99 41.6283C100.178 40.1254 99.1976 38.54 97.9845 35.9418C97.6615 35.2592 97.2919 34.5996 96.8782 33.9678Z" fill="black" fill-opacity="0.75"/>
<path d="M87.7147 37.1592C88.5911 37.1104 88.8345 37.5003 89.9543 36.5255C91.0741 35.5507 92.5347 33.7473 93.4598 32.6262C93.7451 32.281 94.2158 31.7543 94.731 31.1911C92.9837 29.2577 90.9443 27.5761 89.0753 26.2331C87.3415 28.379 85.5509 30.7159 85.4238 31.359C85.1803 32.6262 84.7476 34.6734 85.4238 35.4532C86.1 36.2331 86.8316 37.2079 87.7147 37.1592Z" fill="black" fill-opacity="0.75"/>
<path d="M79.7231 33.5361C80.924 32.9512 81.1837 33.0812 83.4882 28.597C84.2997 27.0075 85.0895 25.4749 85.7873 24.0952C85.3032 23.8095 84.865 23.5645 84.4917 23.3655C82.8607 22.499 80.7239 21.47 78.8887 20.5493C77.3009 23.4792 75.5996 26.8464 75.5644 27.8821C75.4995 29.8318 75.2399 30.7416 76.0189 31.8789C76.7978 33.0162 77.823 34.4635 79.7231 33.5361Z" fill="black" fill-opacity="0.75"/>
</g>
</g>
<defs>
<filter id="filter0_d_946_3067" x="0.495595" y="0.495595" width="109.087" height="69.7351" filterUnits="userSpaceOnUse" color-interpolation-filters="sRGB">
<feFlood flood-opacity="0" result="BackgroundImageFix"/>
<feColorMatrix in="SourceAlpha" type="matrix" values="0 0 0 0 0 0 0 0 0 0 0 0 0 0 0 0 0 0 127 0" result="hardAlpha"/>
<feOffset dx="0.539139" dy="0.539139"/>
<feGaussianBlur stdDeviation="2.02177"/>
<feComposite in2="hardAlpha" operator="out"/>
<feColorMatrix type="matrix" values="0 0 0 0 0 0 0 0 0 0 0 0 0 0 0 0 0 0 0.25 0"/>
<feBlend mode="normal" in2="BackgroundImageFix" result="effect1_dropShadow_946_3067"/>
<feBlend mode="normal" in="SourceGraphic" in2="effect1_dropShadow_946_3067" result="shape"/>
</filter>
<filter id="filter1_d_946_3067" x="5.00145" y="26.8149" width="57.9735" height="25.2983" filterUnits="userSpaceOnUse" color-interpolation-filters="sRGB">
<feFlood flood-opacity="0" result="BackgroundImageFix"/>
<feColorMatrix in="SourceAlpha" type="matrix" values="0 0 0 0 0 0 0 0 0 0 0 0 0 0 0 0 0 0 127 0" result="hardAlpha"/>
<feOffset dx="0.539139" dy="0.539139"/>
<feGaussianBlur stdDeviation="2.02177"/>
<feComposite in2="hardAlpha" operator="out"/>
<feColorMatrix type="matrix" values="0 0 0 0 0 0 0 0 0 0 0 0 0 0 0 0 0 0 0.25 0"/>
<feBlend mode="normal" in2="BackgroundImageFix" result="effect1_dropShadow_946_3067"/>
<feBlend mode="normal" in="SourceGraphic" in2="effect1_dropShadow_946_3067" result="shape"/>
</filter>
<linearGradient id="paint0_linear_946_3067" x1="-0.294514" y1="7.19182" x2="99.352" y2="78.4962" gradientUnits="userSpaceOnUse">
<stop stop-color="#CBCBCB"/>
<stop offset="1" stop-color="#959595"/>
</linearGradient>
</defs>
</svg>
