<svg width="28" height="28" viewBox="0 0 28 28" fill="none" xmlns="http://www.w3.org/2000/svg">
<path fill-rule="evenodd" clip-rule="evenodd" d="M25.1998 14C25.1998 20.1856 20.1854 25.2001 13.9998 25.2001C7.81422 25.2001 2.7998 20.1856 2.7998 14C2.7998 7.81446 7.81422 2.80005 13.9998 2.80005C20.1854 2.80005 25.1998 7.81446 25.1998 14ZM16.7998 9.80005C16.7998 11.3464 15.5462 12.6 13.9998 12.6C12.4534 12.6 11.1998 11.3464 11.1998 9.80005C11.1998 8.25365 12.4534 7.00005 13.9998 7.00005C15.5462 7.00005 16.7998 8.25365 16.7998 9.80005ZM13.9997 15.4C11.1752 15.4 8.74133 17.073 7.63503 19.4821C9.17545 21.2689 11.4555 22.4001 13.9998 22.4001C16.544 22.4001 18.824 21.2689 20.3644 19.4822C19.2582 17.073 16.8243 15.4 13.9997 15.4Z" fill="#F2F2F2"/>
</svg>
