<svg width="19" height="19" viewBox="0 0 19 19" fill="none" xmlns="http://www.w3.org/2000/svg">
<path d="M17.6489 0L19 1.351L1.35107 19L0 17.648L17.6489 0Z" fill="#B9BBBE"/>
<path d="M14.6137 8.42822L7.47495 15.567H17.4802V14.6116C15.8979 14.6116 14.6137 13.3284 14.6137 11.7452V8.42822Z" fill="#B9BBBE"/>
<path d="M5.96996 17.0688L6.51629 16.5225H12.1691C11.507 17.6595 10.2878 18.4334 8.87744 18.4334C7.70686 18.4334 6.66797 17.9002 5.96996 17.0688Z" fill="#B9BBBE"/>
<path d="M8.87906 1.23535C10.233 1.23535 11.4685 1.71308 12.4469 2.4975L3.14423 11.8007C3.14423 11.791 3.14472 11.7816 3.1452 11.7723C3.14567 11.7632 3.14614 11.7543 3.14614 11.7453V6.96804C3.14614 3.80168 5.7126 1.23535 8.87906 1.23535Z" fill="#B9BBBE"/>
</svg>
