<svg width="30" height="30" viewBox="0 0 30 30" fill="none" xmlns="http://www.w3.org/2000/svg">
<path d="M4.5 1.5C3.67157 1.5 3 2.17157 3 3C3 3.82843 3.67157 4.5 4.5 4.5H6.32884L6.78718 6.33336C6.79199 6.35456 6.79725 6.37559 6.80294 6.39644L8.83879 14.5398L7.49993 15.8787C5.61004 17.7686 6.94853 21 9.62125 21H22.4999C23.3284 21 23.9999 20.3284 23.9999 19.5C23.9999 18.6716 23.3284 18 22.4999 18L9.62125 18L11.1212 16.5H21C21.5682 16.5 22.0876 16.179 22.3416 15.6708L26.8416 6.67082C27.0741 6.20584 27.0493 5.65363 26.776 5.2114C26.5027 4.76918 26.0199 4.5 25.5 4.5H9.42116L8.95521 2.6362C8.78828 1.96845 8.1883 1.5 7.5 1.5H4.5Z" fill="#F2F2F2"/>
<path d="M24 24.75C24 25.9926 22.9926 27 21.75 27C20.5074 27 19.5 25.9926 19.5 24.75C19.5 23.5074 20.5074 22.5 21.75 22.5C22.9926 22.5 24 23.5074 24 24.75Z" fill="#F2F2F2"/>
<path d="M9.75 27C10.9926 27 12 25.9926 12 24.75C12 23.5074 10.9926 22.5 9.75 22.5C8.50736 22.5 7.5 23.5074 7.5 24.75C7.5 25.9926 8.50736 27 9.75 27Z" fill="#F2F2F2"/>
</svg>
