<svg width="15" height="15" viewBox="0 0 15 15" fill="none" xmlns="http://www.w3.org/2000/svg">
<g clip-path="url(#clip0_716_5826)">
<path d="M6.5625 2.875V1.46875C6.5625 1.34443 6.61189 1.2252 6.69979 1.13729C6.7877 1.04939 6.90693 1 7.03125 1C7.15557 1 7.2748 1.04939 7.36271 1.13729C7.45061 1.2252 7.5 1.34443 7.5 1.46875V2.875C7.5 2.99932 7.45061 3.11855 7.36271 3.20646C7.2748 3.29436 7.15557 3.34375 7.03125 3.34375C6.90693 3.34375 6.7877 3.29436 6.69979 3.20646C6.61189 3.11855 6.5625 2.99932 6.5625 2.875ZM7.03125 4.28125C6.28957 4.28125 5.56455 4.50118 4.94786 4.91324C4.33118 5.32529 3.85053 5.91096 3.5667 6.59619C3.28287 7.28141 3.20861 8.03541 3.35331 8.76284C3.498 9.49027 3.85515 10.1585 4.3796 10.6829C4.90405 11.2073 5.57223 11.5645 6.29966 11.7092C7.02709 11.8539 7.78109 11.7796 8.46631 11.4958C9.15154 11.212 9.73721 10.7313 10.1493 10.1146C10.5613 9.49795 10.7812 8.77293 10.7812 8.03125C10.7802 7.03702 10.3847 6.08383 9.6817 5.3808C8.97868 4.67777 8.02548 4.28234 7.03125 4.28125ZM2.94961 4.61289C3.03757 4.70085 3.15686 4.75026 3.28125 4.75026C3.40564 4.75026 3.52493 4.70085 3.61289 4.61289C3.70085 4.52493 3.75026 4.40564 3.75026 4.28125C3.75026 4.15686 3.70085 4.03757 3.61289 3.94961L2.67539 3.01211C2.58743 2.92415 2.46814 2.87474 2.34375 2.87474C2.21936 2.87474 2.10007 2.92415 2.01211 3.01211C1.92415 3.10007 1.87474 3.21936 1.87474 3.34375C1.87474 3.46814 1.92415 3.58743 2.01211 3.67539L2.94961 4.61289ZM2.94961 11.4496L2.01211 12.3871C1.92415 12.4751 1.87474 12.5944 1.87474 12.7188C1.87474 12.8431 1.92415 12.9624 2.01211 13.0504C2.10007 13.1383 2.21936 13.1878 2.34375 13.1878C2.46814 13.1878 2.58743 13.1383 2.67539 13.0504L3.61289 12.1129C3.65644 12.0693 3.69099 12.0176 3.71456 11.9607C3.73813 11.9038 3.75026 11.8428 3.75026 11.7812C3.75026 11.7197 3.73813 11.6587 3.71456 11.6018C3.69099 11.5449 3.65644 11.4932 3.61289 11.4496C3.56934 11.4061 3.51764 11.3715 3.46073 11.3479C3.40383 11.3244 3.34284 11.3122 3.28125 11.3122C3.21966 11.3122 3.15867 11.3244 3.10177 11.3479C3.04486 11.3715 2.99316 11.4061 2.94961 11.4496ZM10.7812 4.75C10.8428 4.75005 10.9038 4.73796 10.9607 4.71444C11.0176 4.69091 11.0693 4.65641 11.1129 4.61289L12.0504 3.67539C12.1383 3.58743 12.1878 3.46814 12.1878 3.34375C12.1878 3.21936 12.1383 3.10007 12.0504 3.01211C11.9624 2.92415 11.8431 2.87474 11.7188 2.87474C11.5944 2.87474 11.4751 2.92415 11.3871 3.01211L10.4496 3.94961C10.384 4.01517 10.3393 4.09872 10.3212 4.1897C10.303 4.28068 10.3123 4.37498 10.3478 4.46068C10.3833 4.54638 10.4435 4.61962 10.5206 4.67112C10.5978 4.72262 10.6885 4.75007 10.7812 4.75ZM11.1129 11.4496C11.0249 11.3617 10.9056 11.3122 10.7812 11.3122C10.6569 11.3122 10.5376 11.3617 10.4496 11.4496C10.3617 11.5376 10.3122 11.6569 10.3122 11.7812C10.3122 11.9056 10.3617 12.0249 10.4496 12.1129L11.3871 13.0504C11.4307 13.0939 11.4824 13.1285 11.5393 13.1521C11.5962 13.1756 11.6572 13.1878 11.7188 13.1878C11.7803 13.1878 11.8413 13.1756 11.8982 13.1521C11.9551 13.1285 12.0068 13.0939 12.0504 13.0504C12.0939 13.0068 12.1285 12.9551 12.1521 12.8982C12.1756 12.8413 12.1878 12.7803 12.1878 12.7188C12.1878 12.6572 12.1756 12.5962 12.1521 12.5393C12.1285 12.4824 12.0939 12.4307 12.0504 12.3871L11.1129 11.4496ZM2.34375 8.03125C2.34375 7.90693 2.29436 7.7877 2.20646 7.69979C2.11855 7.61189 1.99932 7.5625 1.875 7.5625H0.46875C0.34443 7.5625 0.225201 7.61189 0.137294 7.69979C0.049386 7.7877 0 7.90693 0 8.03125C0 8.15557 0.049386 8.2748 0.137294 8.36271C0.225201 8.45061 0.34443 8.5 0.46875 8.5H1.875C1.99932 8.5 2.11855 8.45061 2.20646 8.36271C2.29436 8.2748 2.34375 8.15557 2.34375 8.03125ZM7.03125 12.7188C6.90693 12.7188 6.7877 12.7681 6.69979 12.856C6.61189 12.944 6.5625 13.0632 6.5625 13.1875V14.5938C6.5625 14.7181 6.61189 14.8373 6.69979 14.9252C6.7877 15.0131 6.90693 15.0625 7.03125 15.0625C7.15557 15.0625 7.2748 15.0131 7.36271 14.9252C7.45061 14.8373 7.5 14.7181 7.5 14.5938V13.1875C7.5 13.0632 7.45061 12.944 7.36271 12.856C7.2748 12.7681 7.15557 12.7188 7.03125 12.7188ZM13.5938 7.5625H12.1875C12.0632 7.5625 11.944 7.61189 11.856 7.69979C11.7681 7.7877 11.7188 7.90693 11.7188 8.03125C11.7188 8.15557 11.7681 8.2748 11.856 8.36271C11.944 8.45061 12.0632 8.5 12.1875 8.5H13.5938C13.7181 8.5 13.8373 8.45061 13.9252 8.36271C14.0131 8.2748 14.0625 8.15557 14.0625 8.03125C14.0625 7.90693 14.0131 7.7877 13.9252 7.69979C13.8373 7.61189 13.7181 7.5625 13.5938 7.5625Z" fill="#41444B"/>
</g>
<defs>
<clipPath id="clip0_716_5826">
<rect width="15" height="15" fill="white"/>
</clipPath>
</defs>
</svg>
