<svg width="89" height="57" viewBox="0 0 89 57" fill="none" xmlns="http://www.w3.org/2000/svg">
<g filter="url(#filter0_d_967_4697)">
<path d="M10.9567 53C9.26542 53.0004 7.72425 52.0319 7.01945 50.4945C5.57454 47.3426 3.28613 42.1481 3.13068 40.5399C2.76186 36.8077 3.25911 31.1163 3.56975 29.607C4.02858 27.3677 6.05709 22.8101 8.90228 20.2767C11.7475 17.7433 12.8792 17.673 15.1986 14.1967C17.518 10.7203 20.9921 6.76646 22.6485 5.1858C24.3049 3.60514 25.2566 3.20998 26.9163 3.05191C28.576 2.89385 29.0502 3.05191 30.7099 4.15837C32.3696 5.26483 33.2345 7.39872 34.6615 8.90035C36.0885 10.402 35.847 10.481 36.7954 10.56C37.7438 10.6391 38.5341 10.402 39.4825 10.0858C40.4309 9.76971 41.5407 8.58422 44.3826 6.60839C47.2245 4.63257 47.7854 4.00031 50.31 3.84224C52.8347 3.68418 54.6568 3.60514 56.3165 5.50193C57.9762 7.39872 58.6304 9.29551 59.3308 11.2713C60.0311 13.2472 59.873 13.9585 60.8214 14.7488C61.7698 15.5391 65.8016 17.3569 68.3306 18.7004C70.8597 20.044 76.9474 23.9166 79.2778 28.8957C81.6082 33.8747 82.8716 34.2743 83.82 40.0393C84.2629 42.7315 84.6541 45.7316 84.9452 48.1648C85.2537 50.7421 83.2292 52.9815 80.6335 52.9822L10.9567 53Z" fill="url(#paint0_linear_967_4697)"/>
<g filter="url(#filter1_d_967_4697)">
<path d="M41.9228 25.6024C41.554 25.6024 40.0568 25.7495 39.228 26.4454C38.2599 27.2642 37.6496 28.7988 37.5618 29.3323C37.4146 30.3489 37.3226 31.3727 37.2863 32.3992C37.2325 33.6505 37.6276 34.7581 37.7473 35.1192C38.093 36.1664 39.4662 37.7998 40.4146 38.0632C41.363 38.3267 43.7801 38.3991 44.4651 38.083C45.15 37.7668 46.3311 36.6055 46.5331 35.9293C46.7823 35.0896 47.3728 32.7461 47.0567 30.7977C46.7428 28.8669 46.3048 27.3224 45.3926 26.5508C44.2411 25.576 41.9228 25.6024 41.9228 25.6024Z" fill="black" fill-opacity="0.75"/>
<path d="M11.5735 24.3381C9.37812 24.7596 8.74147 25.9978 8.21458 26.7355C7.6877 27.4731 6.58124 29.7914 6.66027 31.3457C6.7393 32.9 7.63501 35.3237 8.39899 36.0087C9.16298 36.6936 11.0598 36.9571 11.6657 36.72C12.2716 36.4829 13.4384 35.6629 14.2079 34.0647C14.9774 32.4665 15.1497 31.2755 15.1574 30.1394C15.1651 29.0033 15.3144 28.4006 14.9851 27.1229C14.6876 25.9693 14.5109 25.5686 13.8786 25.0944C13.2463 24.6202 11.5735 24.3381 11.5735 24.3381Z" fill="black" fill-opacity="0.75"/>
<path d="M26.9806 34.7695C26.846 34.7694 26.7116 34.7584 26.5788 34.7365C25.659 34.5905 24.8599 33.9407 24.4208 32.9923L24.075 33.4698C24.0628 33.4874 24.0496 33.5042 24.0355 33.5203C23.3111 34.3765 22.5701 34.5389 22.0784 34.5269C21.5866 34.5148 20.8435 34.3073 20.1519 33.3963C20.1355 33.3743 20.1201 33.3513 20.1058 33.3282L19.0817 31.6268C18.9766 31.4521 18.9452 31.2429 18.9944 31.045C19.0436 30.8472 19.1694 30.677 19.344 30.5719C19.5187 30.4668 19.728 30.4354 19.9258 30.4846C20.1236 30.5338 20.2938 30.6596 20.3989 30.8343L21.4011 32.4973C21.6448 32.8101 21.8994 32.9846 22.1201 32.9901C22.4066 32.9978 22.6909 32.7278 22.8456 32.5511L23.7457 31.2986C23.7579 31.2807 23.7711 31.2635 23.7853 31.247C23.8906 31.1102 24.0307 31.0043 24.1909 30.9402C24.3512 30.8761 24.5258 30.8562 24.6963 30.8826C25.2891 30.9836 25.513 31.5653 25.6919 32.0329C25.7227 32.1142 25.7534 32.1943 25.7852 32.2689L25.7918 32.2854C26.0113 32.809 26.39 33.1504 26.8247 33.2195C27.1859 33.2777 27.5448 33.1306 27.8346 32.8057L29.3022 30.9177C29.4272 30.7567 29.6111 30.652 29.8133 30.6266C30.0156 30.6011 30.2197 30.6571 30.3807 30.7821C30.5417 30.9072 30.6464 31.091 30.6718 31.2933C30.6972 31.4956 30.6413 31.6996 30.5162 31.8606L29.0333 33.7673C29.0247 33.7791 29.0156 33.7905 29.0058 33.8013C28.7584 34.0997 28.4492 34.3407 28.0996 34.5079C27.7499 34.675 27.3681 34.7643 26.9806 34.7695Z" fill="black" fill-opacity="0.75"/>
</g>
<path d="M32.0614 52.9806C30.5817 50.5976 27.6147 48.9697 24.1943 48.9697C20.774 48.9697 17.8058 50.5976 16.3262 52.9806H32.0614Z" fill="white"/>
<g opacity="0.2">
<path d="M78.383 27.2961C76.9318 28.7528 75.529 30.2818 75.248 31.0283C74.6157 32.6879 74.5762 34.2291 75.0504 34.7823C75.5246 35.3355 75.5641 35.8888 76.4774 35.9283C77.3907 35.9678 77.7814 36.1259 79.0855 35.3795C79.5564 35.1094 80.5915 34.3575 81.7199 33.5068C81.0613 32.2884 80.2655 31.003 79.2809 28.8966C79.0187 28.3431 78.7187 27.8083 78.383 27.2961Z" fill="black" fill-opacity="0.75"/>
<path d="M70.9465 29.8837C71.6577 29.8441 71.8553 30.1603 72.7642 29.3699C73.6731 28.5796 74.8586 27.1175 75.6094 26.2086C75.841 25.9287 76.223 25.5017 76.6412 25.0451C75.223 23.4776 73.5677 22.1143 72.0507 21.0254C70.6435 22.7652 69.1902 24.6598 69.087 25.1812C68.8894 26.2086 68.5381 27.8683 69.087 28.5006C69.6358 29.1328 70.2297 29.9232 70.9465 29.8837Z" fill="black" fill-opacity="0.75"/>
<path d="M64.4602 26.9462C65.435 26.472 65.6457 26.5774 67.5162 22.9418C68.1748 21.6532 68.8158 20.4106 69.3822 19.2921C68.9893 19.0604 68.6336 18.8618 68.3307 18.7004C67.0069 17.9979 65.2725 17.1637 63.783 16.4172C62.4943 18.7926 61.1134 21.5225 61.0849 22.3623C61.0322 23.9429 60.8214 24.6806 61.4537 25.6026C62.086 26.5247 62.918 27.6981 64.4602 26.9462Z" fill="black" fill-opacity="0.75"/>
</g>
</g>
<defs>
<filter id="filter0_d_967_4697" x="0.319283" y="0.319283" width="88.1628" height="56.1863" filterUnits="userSpaceOnUse" color-interpolation-filters="sRGB">
<feFlood flood-opacity="0" result="BackgroundImageFix"/>
<feColorMatrix in="SourceAlpha" type="matrix" values="0 0 0 0 0 0 0 0 0 0 0 0 0 0 0 0 0 0 127 0" result="hardAlpha"/>
<feOffset dx="0.412418" dy="0.412418"/>
<feGaussianBlur stdDeviation="1.54657"/>
<feComposite in2="hardAlpha" operator="out"/>
<feColorMatrix type="matrix" values="0 0 0 0 0 0 0 0 0 0 0 0 0 0 0 0 0 0 0.25 0"/>
<feBlend mode="normal" in2="BackgroundImageFix" result="effect1_dropShadow_967_4697"/>
<feBlend mode="normal" in="SourceGraphic" in2="effect1_dropShadow_967_4697" result="shape"/>
</filter>
<filter id="filter1_d_967_4697" x="3.97553" y="21.6574" width="46.6775" height="20.1399" filterUnits="userSpaceOnUse" color-interpolation-filters="sRGB">
<feFlood flood-opacity="0" result="BackgroundImageFix"/>
<feColorMatrix in="SourceAlpha" type="matrix" values="0 0 0 0 0 0 0 0 0 0 0 0 0 0 0 0 0 0 127 0" result="hardAlpha"/>
<feOffset dx="0.412418" dy="0.412418"/>
<feGaussianBlur stdDeviation="1.54657"/>
<feComposite in2="hardAlpha" operator="out"/>
<feColorMatrix type="matrix" values="0 0 0 0 0 0 0 0 0 0 0 0 0 0 0 0 0 0 0.25 0"/>
<feBlend mode="normal" in2="BackgroundImageFix" result="effect1_dropShadow_967_4697"/>
<feBlend mode="normal" in="SourceGraphic" in2="effect1_dropShadow_967_4697" result="shape"/>
</filter>
<linearGradient id="paint0_linear_967_4697" x1="-0.48563" y1="5.593" x2="80.4423" y2="63.4499" gradientUnits="userSpaceOnUse">
<stop stop-color="#CBCBCB"/>
<stop offset="1" stop-color="#959595"/>
</linearGradient>
</defs>
</svg>
