<svg width="19" height="19" viewBox="0 0 19 19" fill="none" xmlns="http://www.w3.org/2000/svg">
<path d="M5.85714 14.2782V4.64286M9.5 14.3389V9.5M13.1429 14.3571V7.07143M3.42857 1H15.5714C16.2155 1 16.8332 1.25587 17.2887 1.71131C17.7441 2.16676 18 2.78447 18 3.42857V15.5714C18 16.2155 17.7441 16.8332 17.2887 17.2887C16.8332 17.7441 16.2155 18 15.5714 18H3.42857C2.78447 18 2.16676 17.7441 1.71131 17.2887C1.25587 16.8332 1 16.2155 1 15.5714V3.42857C1 2.78447 1.25587 2.16676 1.71131 1.71131C2.16676 1.25587 2.78447 1 3.42857 1Z" stroke="#717171" stroke-linecap="round" stroke-linejoin="round"/>
</svg>
