<svg width="17" height="17" viewBox="0 0 17 17" fill="none" xmlns="http://www.w3.org/2000/svg">
<path d="M12.3535 6.60875H11.5743V4.53333C11.5743 3.71801 11.2504 2.93609 10.6739 2.35957C10.0974 1.78305 9.31546 1.45917 8.50014 1.45917C7.68482 1.45917 6.9029 1.78305 6.32638 2.35957C5.74986 2.93609 5.42598 3.71801 5.42598 4.53333V6.60875H4.64681C4.17716 6.60875 3.72674 6.79532 3.39464 7.12742C3.06255 7.45951 2.87598 7.90993 2.87598 8.37958V13.77C2.87728 14.2393 3.06427 14.6889 3.39609 15.0207C3.7279 15.3525 4.17756 15.5395 4.64681 15.5408H12.3535C12.8227 15.5395 13.2724 15.3525 13.6042 15.0207C13.936 14.6889 14.123 14.2393 14.1243 13.77V8.37958C14.1243 7.90993 13.9377 7.45951 13.6056 7.12742C13.2736 6.79532 12.8231 6.60875 12.3535 6.60875ZM6.13431 4.53333C6.13431 3.90588 6.38357 3.30412 6.82725 2.86044C7.27093 2.41676 7.87268 2.1675 8.50014 2.1675C9.1276 2.1675 9.72936 2.41676 10.173 2.86044C10.6167 3.30412 10.866 3.90588 10.866 4.53333V6.60875H6.13431V4.53333ZM13.416 13.77C13.4141 14.0512 13.3016 14.3204 13.1027 14.5193C12.9039 14.7181 12.6347 14.8306 12.3535 14.8325H4.64681C4.36559 14.8306 4.09642 14.7181 3.89756 14.5193C3.6987 14.3204 3.58617 14.0512 3.58431 13.77V8.37958C3.58431 8.09779 3.69625 7.82754 3.89551 7.62828C4.09477 7.42903 4.36502 7.31708 4.64681 7.31708H12.3535C12.6353 7.31708 12.9055 7.42903 13.1048 7.62828C13.304 7.82754 13.416 8.09779 13.416 8.37958V13.77Z" fill="#717171"/>
<path d="M9.20867 10.5896C9.20938 10.7135 9.17691 10.8353 9.11463 10.9424C9.05235 11.0495 8.96253 11.138 8.8545 11.1987V12.2612C8.8545 12.3552 8.81719 12.4452 8.75077 12.5117C8.68435 12.5781 8.59427 12.6154 8.50034 12.6154C8.40641 12.6154 8.31632 12.5781 8.2499 12.5117C8.18348 12.4452 8.14617 12.3552 8.14617 12.2612V11.1987C8.03814 11.138 7.94833 11.0495 7.88605 10.9424C7.82377 10.8353 7.7913 10.7135 7.792 10.5896C7.792 10.4017 7.86663 10.2215 7.99947 10.0887C8.13231 9.95585 8.31248 9.88123 8.50034 9.88123C8.6882 9.88123 8.86837 9.95585 9.0012 10.0887C9.13404 10.2215 9.20867 10.4017 9.20867 10.5896Z" fill="#717171"/>
</svg>
