<svg width="16" height="17" viewBox="0 0 16 17" fill="none" xmlns="http://www.w3.org/2000/svg">
<path d="M8 17L5.423 14.6418H1.615C1.155 14.6418 0.770669 14.5008 0.462002 14.219C0.153335 13.9371 -0.000664511 13.5851 2.15517e-06 13.1629V1.47882C2.15517e-06 1.05726 0.154335 0.70555 0.463002 0.423696C0.771668 0.141842 1.156 0.000610073 1.616 0H14.385C14.845 0 15.2293 0.141232 15.538 0.423696C15.8467 0.70616 16.0007 1.05787 16 1.47882V13.1639C16 13.5848 15.846 13.9365 15.538 14.219C15.23 14.5014 14.8453 14.6424 14.384 14.6418H10.577L8 17ZM1 13.0266C1.9 12.2182 2.946 11.5813 4.138 11.1158C5.33 10.6504 6.61733 10.4176 8 10.4176C9.38267 10.4176 10.6703 10.6504 11.863 11.1158C13.0557 11.5813 14.1013 12.2182 15 13.0266V1.4779C15 1.33759 14.936 1.20856 14.808 1.09081C14.68 0.973067 14.5387 0.9145 14.384 0.91511H1.616C1.462 0.91511 1.32067 0.973677 1.192 1.09081C1.06334 1.20795 0.999335 1.33698 1 1.4779V13.0266ZM8 8.30645C8.83867 8.30645 9.54833 8.04077 10.129 7.50939C10.7097 6.97802 11 6.3286 11 5.56112C11 4.79365 10.7097 4.14423 10.129 3.61285C9.54833 3.08148 8.83867 2.81579 8 2.81579C7.16133 2.81579 6.45167 3.08148 5.871 3.61285C5.29033 4.14423 5 4.79365 5 5.56112C5 6.3286 5.29033 6.97802 5.871 7.50939C6.45167 8.04077 7.16133 8.30645 8 8.30645ZM1.885 13.7267H14.115V13.5683C13.2357 12.8118 12.278 12.2503 11.242 11.8836C10.206 11.517 9.12533 11.3336 8 11.3336C6.9 11.3336 5.829 11.5139 4.787 11.8745C3.745 12.235 2.77733 12.7881 1.884 13.5336L1.885 13.7267ZM8 7.39134C7.45533 7.39134 6.98567 7.21107 6.591 6.85051C6.197 6.48935 6 6.05955 6 5.56112C6 5.06269 6.197 4.6329 6.591 4.27173C6.98567 3.91118 7.45533 3.7309 8 3.7309C8.54467 3.7309 9.01433 3.91118 9.409 4.27173C9.803 4.6329 10 5.06269 10 5.56112C10 6.05955 9.803 6.48935 9.409 6.85051C9.015 7.21168 8.54533 7.39195 8 7.39134Z" fill="#B9BBBE"/>
</svg>
