<svg width="17" height="17" viewBox="0 0 17 17" fill="none" xmlns="http://www.w3.org/2000/svg">
<path d="M15.8864 11.1842L14.2247 10.0211C14.4986 9.05474 14.5169 8.00789 14.2247 6.96105L15.8864 5.81579L14.5625 3.57895L12.7091 4.40211C11.9878 3.68632 11.0747 3.13158 10.0065 2.87211L9.82389 0.894737H7.17611L6.9935 2.87211C5.92525 3.13158 5.01222 3.68632 4.29093 4.40211L2.43747 3.57895L1.11358 5.81579L2.77529 6.96105C2.48312 8.00789 2.50138 9.05474 2.77529 10.0211L1.11358 11.1842L2.43747 13.4211L4.29093 12.5889C5.01222 13.2958 5.92525 13.8326 6.9935 14.11L7.17611 16.1053H9.82389L10.0065 14.11C11.0747 13.8326 11.9878 13.2958 12.7091 12.5889L14.5625 13.4211L15.8864 11.1842ZM10.3261 0C10.5726 0 10.7826 0.178947 10.7826 0.411579L10.9469 2.23684C11.6408 2.48737 12.2617 2.85421 12.8186 3.29263L14.5077 2.51421C14.7177 2.40684 14.9825 2.47842 15.1103 2.68421L16.9364 5.81579C17.0642 6.00368 16.9912 6.26316 16.7903 6.39737L15.2656 7.44421C15.3843 8.16 15.3751 8.86684 15.2656 9.55579L16.7903 10.6026C16.9912 10.7368 17.0642 10.9963 16.9364 11.1842L15.1103 14.3158C14.9825 14.5037 14.7177 14.5753 14.5077 14.4679L12.8186 13.6984C12.2617 14.1368 11.6408 14.4947 10.9469 14.7632L10.7826 16.5526C10.7826 16.8121 10.5726 17 10.3261 17H6.67394C6.55286 17 6.43675 16.9529 6.35113 16.869C6.26552 16.7851 6.21742 16.6713 6.21742 16.5526L6.05308 14.7632C5.35917 14.4947 4.73831 14.1368 4.18136 13.6984L2.49225 14.4679C2.28226 14.5753 2.01748 14.5037 1.88965 14.3158L0.0635915 11.1842C-0.0642329 10.9963 0.00880972 10.7368 0.209677 10.6026L1.73444 9.55579C1.62488 8.86684 1.61574 8.16 1.73444 7.44421L0.209677 6.39737C0.00880972 6.26316 -0.0642329 6.00368 0.0635915 5.81579L1.88965 2.68421C2.01748 2.47842 2.28226 2.40684 2.49225 2.51421L4.18136 3.29263C4.73831 2.85421 5.35917 2.48737 6.05308 2.23684L6.21742 0.411579C6.21742 0.178947 6.42742 0 6.67394 0H10.3261ZM8.5 5.36842C9.34753 5.36842 10.1603 5.69835 10.7596 6.28564C11.3589 6.87292 11.6956 7.66945 11.6956 8.5C11.6956 9.33055 11.3589 10.1271 10.7596 10.7144C10.1603 11.3016 9.34753 11.6316 8.5 11.6316C7.65247 11.6316 6.83966 11.3016 6.24036 10.7144C5.64107 10.1271 5.30439 9.33055 5.30439 8.5C5.30439 7.66945 5.64107 6.87292 6.24036 6.28564C6.83966 5.69835 7.65247 5.36842 8.5 5.36842ZM8.5 6.26316C7.89462 6.26316 7.31404 6.49882 6.88597 6.91831C6.45791 7.3378 6.21742 7.90675 6.21742 8.5C6.21742 9.09325 6.45791 9.6622 6.88597 10.0817C7.31404 10.5012 7.89462 10.7368 8.5 10.7368C9.10538 10.7368 9.68596 10.5012 10.114 10.0817C10.5421 9.6622 10.7826 9.09325 10.7826 8.5C10.7826 7.90675 10.5421 7.3378 10.114 6.91831C9.68596 6.49882 9.10538 6.26316 8.5 6.26316Z" fill="#B9BBBE"/>
</svg>
