<svg width="20" height="19" viewBox="0 0 20 19" fill="none" xmlns="http://www.w3.org/2000/svg">
<path fill-rule="evenodd" clip-rule="evenodd" d="M17.4999 5.68035H14.5416C14.9701 5.45677 15.3757 5.18372 15.7149 4.84502C16.8254 3.73283 16.8254 1.92231 15.7149 0.807266C14.6366 -0.268771 12.7632 -0.269723 11.685 0.808217C10.1298 2.36566 9.9208 5.29694 9.9018 5.62612C9.90079 5.63613 9.90299 5.64534 9.9052 5.6546L9.90541 5.65549C9.90741 5.66355 9.9094 5.67166 9.9094 5.68035H9.8904C9.8904 5.67174 9.8923 5.66371 9.8943 5.65565C9.89667 5.6459 9.89905 5.63611 9.898 5.62517C9.87995 5.29599 9.67 2.36471 8.11485 0.807266C7.0366 -0.268771 5.1613 -0.268772 4.08495 0.809168C2.97345 1.92136 2.97345 3.73188 4.08495 4.84502C4.4241 5.18372 4.82975 5.45677 5.2582 5.68035H2.2999C1.25205 5.68035 0.399902 6.53376 0.399902 7.58316V9.48597H19.3999V7.58316C19.3999 6.53376 18.5487 5.68035 17.4999 5.68035ZM1.3499 17.0972V11.3888H8.9499V19H3.2499C2.20205 19 1.3499 18.1466 1.3499 17.0972ZM10.8499 11.3888V19H16.5499C17.5987 19 18.4499 18.1466 18.4499 17.0972V11.3888H10.8499ZM5.42829 2.1535C5.05778 2.52455 5.05778 3.12774 5.42829 3.49974C5.98498 4.05726 6.99768 4.38644 7.83368 4.56055C7.65888 3.72141 7.33208 2.71483 6.77158 2.1535C6.59298 1.97368 6.35453 1.87569 6.09994 1.87569C5.84533 1.87569 5.60688 1.97368 5.42829 2.1535ZM13.0283 2.15445C12.4668 2.71578 12.141 3.72236 11.9652 4.56245C12.8041 4.3893 13.8101 4.06201 14.3716 3.49974C14.7421 3.12774 14.7411 2.52455 14.3706 2.15255C14.193 1.97368 13.9545 1.87569 13.6999 1.87569C13.4453 1.87569 13.2069 1.97369 13.0283 2.15445Z" fill="#B9BBBE"/>
</svg>
