<svg width="14" height="14" viewBox="0 0 14 14" fill="none" xmlns="http://www.w3.org/2000/svg">
<g clip-path="url(#clip0_633_4231)">
<path d="M7.75486 1.2776e-06C7.96066 1.2776e-06 8.14476 0.128101 8.21406 0.319901L8.70826 1.6898C8.88536 1.7339 9.03726 1.778 9.16606 1.8242C9.30676 1.8746 9.48806 1.9509 9.71206 2.0552L10.8629 1.4462C10.9568 1.39644 11.0643 1.37847 11.1693 1.39501C11.2743 1.41154 11.3712 1.46168 11.4453 1.5379L12.4575 2.5844C12.5919 2.7237 12.6297 2.9274 12.5541 3.1052L12.0144 4.3701C12.104 4.5346 12.1754 4.6753 12.23 4.7929C12.2888 4.921 12.3616 5.0974 12.4484 5.3249L13.7063 5.8639C13.8953 5.9444 14.0122 6.1334 13.9996 6.3357L13.9072 7.7882C13.9008 7.88256 13.867 7.973 13.8097 8.04828C13.7525 8.12356 13.6744 8.18039 13.5852 8.2117L12.3938 8.6352C12.3595 8.7997 12.3238 8.9404 12.286 9.0594C12.225 9.24318 12.1554 9.42398 12.0774 9.6012L12.6759 10.9242C12.7181 11.0172 12.7295 11.1212 12.7083 11.2211C12.6871 11.321 12.6346 11.4115 12.5583 11.4793L11.4201 12.4957C11.3451 12.5624 11.2516 12.6045 11.152 12.6165C11.0524 12.6285 10.9515 12.6098 10.8629 12.5629L9.68966 11.9413C9.50611 12.0385 9.31675 12.1243 9.12266 12.1982L8.61026 12.39L8.15526 13.65C8.12154 13.7423 8.06072 13.8222 7.98077 13.8793C7.90082 13.9364 7.80548 13.968 7.70726 13.9699L6.37726 14C6.27643 14.0026 6.17726 13.974 6.0934 13.9179C6.00954 13.8619 5.9451 13.7813 5.90896 13.6871L5.37276 12.2682C5.18981 12.2057 5.00867 12.138 4.82956 12.0652C4.68306 12.0018 4.53877 11.9334 4.39696 11.8601L3.06696 12.4285C2.97932 12.4659 2.88271 12.477 2.78888 12.4605C2.69504 12.4439 2.60804 12.4005 2.53846 12.3354L1.55426 11.4121C1.48098 11.3437 1.43108 11.2539 1.41161 11.1556C1.39214 11.0572 1.40408 10.9552 1.44576 10.864L2.01766 9.618C1.9416 9.47042 1.87108 9.32005 1.80626 9.1672C1.73059 8.98011 1.66056 8.79079 1.59626 8.5995L0.343257 8.218C0.241408 8.18722 0.152573 8.12366 0.0905501 8.03721C0.0285268 7.95076 -0.00321391 7.84624 0.000257228 7.7399L0.0492572 6.3952C0.052745 6.30746 0.0801529 6.22235 0.128517 6.14906C0.176881 6.07578 0.24436 6.01711 0.323657 5.9794L1.63826 5.348C1.69916 5.1247 1.75236 4.9511 1.79926 4.8244C1.8653 4.65517 1.93863 4.48888 2.01906 4.326L1.44926 3.122C1.40602 3.03057 1.39288 2.92778 1.41175 2.82841C1.43062 2.72904 1.48051 2.63822 1.55426 2.569L2.53706 1.6408C2.60595 1.57582 2.69216 1.53214 2.7853 1.515C2.87844 1.49786 2.97455 1.508 3.06206 1.5442L4.39066 2.093C4.53766 1.995 4.67066 1.9159 4.79106 1.8522C4.93456 1.7759 5.12636 1.6961 5.36786 1.61L5.82986 0.321301C5.86401 0.226989 5.92645 0.145518 6.00863 0.088013C6.09082 0.0305079 6.18875 -0.000228376 6.28906 1.2776e-06H7.75486ZM7.01706 4.9133C5.85016 4.9133 4.90446 5.8478 4.90446 7.0014C4.90446 8.155 5.85016 9.0902 7.01706 9.0902C8.18326 9.0902 9.12896 8.155 9.12896 7.0014C9.12896 5.8478 8.18396 4.9133 7.01706 4.9133Z" fill="#898989"/>
</g>
<defs>
<clipPath id="clip0_633_4231">
<rect width="14" height="14" fill="white"/>
</clipPath>
</defs>
</svg>
