<svg width="7" height="5" viewBox="0 0 7 5" fill="none" xmlns="http://www.w3.org/2000/svg">
<path d="M5.16353 0.155102C5.26918 0.0545189 5.40978 -0.00108759 5.55565 1.61215e-05C5.70151 0.00111984 5.84125 0.0588476 5.94537 0.161018C6.04948 0.263189 6.10984 0.40181 6.11369 0.547633C6.11755 0.693455 6.0646 0.835073 5.96603 0.942602L2.97353 4.6851C2.92208 4.74053 2.85997 4.785 2.79093 4.81588C2.72189 4.84675 2.64734 4.86338 2.57172 4.86479C2.49611 4.86619 2.42098 4.85232 2.35085 4.82403C2.28071 4.79573 2.21701 4.75358 2.16353 4.7001L0.179031 2.7156C0.123766 2.66411 0.0794396 2.60201 0.0486956 2.53301C0.0179516 2.46401 0.00142013 2.38952 8.75399e-05 2.31399C-0.00124505 2.23847 0.0126486 2.16345 0.0409394 2.0934C0.0692301 2.02336 0.111339 1.95974 0.164753 1.90632C0.218167 1.85291 0.281792 1.8108 0.351833 1.78251C0.421874 1.75422 0.496896 1.74033 0.572423 1.74166C0.647951 1.74299 0.722436 1.75952 0.791435 1.79027C0.860435 1.82101 0.922535 1.86534 0.974031 1.9206L2.54453 3.49035L5.14928 0.171602L5.16353 0.155102Z" fill="white"/>
</svg>
