<svg width="16" height="16" viewBox="0 0 16 16" fill="none" xmlns="http://www.w3.org/2000/svg">
<path fill-rule="evenodd" clip-rule="evenodd" d="M7.79004 2.30884C8.20425 2.30884 8.54004 2.64462 8.54004 3.05884V6.80884H12.29C12.7043 6.80884 13.04 7.14462 13.04 7.55884C13.04 7.97305 12.7043 8.30884 12.29 8.30884H8.54004V12.0588C8.54004 12.4731 8.20425 12.8088 7.79004 12.8088C7.37583 12.8088 7.04004 12.4731 7.04004 12.0588V8.30884H3.29004C2.87583 8.30884 2.54004 7.97305 2.54004 7.55884C2.54004 7.14462 2.87583 6.80884 3.29004 6.80884L7.04004 6.80884V3.05884C7.04004 2.64462 7.37583 2.30884 7.79004 2.30884Z" fill="#898989"/>
</svg>
