<svg width="11" height="9" viewBox="0 0 11 9" fill="none" xmlns="http://www.w3.org/2000/svg">
<path d="M0 8.5V7.1C0 6.81667 0.0729167 6.55625 0.21875 6.31875C0.364583 6.08125 0.558333 5.9 0.8 5.775C1.31667 5.51667 1.84167 5.32292 2.375 5.19375C2.90833 5.06458 3.45 5 4 5C4.55 5 5.09167 5.06458 5.625 5.19375C6.15833 5.32292 6.68333 5.51667 7.2 5.775C7.44167 5.9 7.63542 6.08125 7.78125 6.31875C7.92708 6.55625 8 6.81667 8 7.1V8.5H0ZM9 8.5V7C9 6.63333 8.89792 6.28125 8.69375 5.94375C8.48958 5.60625 8.2 5.31667 7.825 5.075C8.25 5.125 8.65 5.21042 9.025 5.33125C9.4 5.45208 9.75 5.6 10.075 5.775C10.375 5.94167 10.6042 6.12708 10.7625 6.33125C10.9208 6.53542 11 6.75833 11 7V8.5H9ZM4 4.5C3.45 4.5 2.97917 4.30417 2.5875 3.9125C2.19583 3.52083 2 3.05 2 2.5C2 1.95 2.19583 1.47917 2.5875 1.0875C2.97917 0.695833 3.45 0.5 4 0.5C4.55 0.5 5.02083 0.695833 5.4125 1.0875C5.80417 1.47917 6 1.95 6 2.5C6 3.05 5.80417 3.52083 5.4125 3.9125C5.02083 4.30417 4.55 4.5 4 4.5ZM9 2.5C9 3.05 8.80417 3.52083 8.4125 3.9125C8.02083 4.30417 7.55 4.5 7 4.5C6.90833 4.5 6.79167 4.48958 6.65 4.46875C6.50833 4.44792 6.39167 4.425 6.3 4.4C6.525 4.13333 6.69792 3.8375 6.81875 3.5125C6.93958 3.1875 7 2.85 7 2.5C7 2.15 6.93958 1.8125 6.81875 1.4875C6.69792 1.1625 6.525 0.866667 6.3 0.6C6.41667 0.558333 6.53333 0.53125 6.65 0.51875C6.76667 0.50625 6.88333 0.5 7 0.5C7.55 0.5 8.02083 0.695833 8.4125 1.0875C8.80417 1.47917 9 1.95 9 2.5ZM1 7.5H7V7.1C7 7.00833 6.97708 6.925 6.93125 6.85C6.88542 6.775 6.825 6.71667 6.75 6.675C6.3 6.45 5.84583 6.28125 5.3875 6.16875C4.92917 6.05625 4.46667 6 4 6C3.53333 6 3.07083 6.05625 2.6125 6.16875C2.15417 6.28125 1.7 6.45 1.25 6.675C1.175 6.71667 1.11458 6.775 1.06875 6.85C1.02292 6.925 1 7.00833 1 7.1V7.5ZM4 3.5C4.275 3.5 4.51042 3.40208 4.70625 3.20625C4.90208 3.01042 5 2.775 5 2.5C5 2.225 4.90208 1.98958 4.70625 1.79375C4.51042 1.59792 4.275 1.5 4 1.5C3.725 1.5 3.48958 1.59792 3.29375 1.79375C3.09792 1.98958 3 2.225 3 2.5C3 2.775 3.09792 3.01042 3.29375 3.20625C3.48958 3.40208 3.725 3.5 4 3.5Z" fill="#FDFDFD"/>
</svg>
