<svg width="12" height="13" viewBox="0 0 12 13" fill="none" xmlns="http://www.w3.org/2000/svg">
<path d="M3 11.5C2.725 11.5 2.48958 11.4021 2.29375 11.2063C2.09792 11.0104 2 10.775 2 10.5V5.5C2 5.225 2.09792 4.98958 2.29375 4.79375C2.48958 4.59792 2.725 4.5 3 4.5H3.5V3.5C3.5 2.80833 3.74375 2.21875 4.23125 1.73125C4.71875 1.24375 5.30833 1 6 1C6.69167 1 7.28125 1.24375 7.76875 1.73125C8.25625 2.21875 8.5 2.80833 8.5 3.5V4.5H9C9.275 4.5 9.51042 4.59792 9.70625 4.79375C9.90208 4.98958 10 5.225 10 5.5V10.5C10 10.775 9.90208 11.0104 9.70625 11.2063C9.51042 11.4021 9.275 11.5 9 11.5H3ZM3 10.5H9V5.5H3V10.5ZM6 9C6.275 9 6.51042 8.90208 6.70625 8.70625C6.90208 8.51042 7 8.275 7 8C7 7.725 6.90208 7.48958 6.70625 7.29375C6.51042 7.09792 6.275 7 6 7C5.725 7 5.48958 7.09792 5.29375 7.29375C5.09792 7.48958 5 7.725 5 8C5 8.275 5.09792 8.51042 5.29375 8.70625C5.48958 8.90208 5.725 9 6 9ZM4.5 4.5H7.5V3.5C7.5 3.08333 7.35417 2.72917 7.0625 2.4375C6.77083 2.14583 6.41667 2 6 2C5.58333 2 5.22917 2.14583 4.9375 2.4375C4.64583 2.72917 4.5 3.08333 4.5 3.5V4.5Z" fill="#FDFDFD"/>
</svg>
