<svg width="13" height="3" viewBox="0 0 13 3" fill="none" xmlns="http://www.w3.org/2000/svg">
<path d="M6.50019 2.43749C7.21816 2.43749 7.80019 1.89184 7.80019 1.21875C7.80019 0.545651 7.21816 0 6.50019 0C5.78222 0 5.2002 0.545651 5.2002 1.21875C5.2002 1.89184 5.78222 2.43749 6.50019 2.43749Z" fill="#A9AEBB"/>
<path d="M11.7004 2.43749C12.4184 2.43749 13.0004 1.89184 13.0004 1.21875C13.0004 0.545651 12.4184 0 11.7004 0C10.9824 0 10.4004 0.545651 10.4004 1.21875C10.4004 1.89184 10.9824 2.43749 11.7004 2.43749Z" fill="#A9AEBB"/>
<path d="M1.3 2.43749C2.01796 2.43749 2.59999 1.89184 2.59999 1.21875C2.59999 0.545651 2.01796 0 1.3 0C0.582028 0 0 0.545651 0 1.21875C0 1.89184 0.582028 2.43749 1.3 2.43749Z" fill="#A9AEBB"/>
</svg>
