<svg width="11" height="8" viewBox="0 0 11 8" fill="none" xmlns="http://www.w3.org/2000/svg">
<path d="M9.59819 0.134295L0.841361 0.134295C0.752702 0.134575 0.665798 0.159177 0.590003 0.205454C0.514207 0.25173 0.452392 0.317927 0.411208 0.396922C0.370025 0.475916 0.351034 0.564716 0.356279 0.653762C0.361526 0.742808 0.390809 0.828728 0.440979 0.902275L4.81939 7.26539C5.00085 7.52921 5.43772 7.52921 5.61967 7.26539L9.99809 0.902275C10.0488 0.828882 10.0785 0.742918 10.084 0.653724C10.0895 0.564529 10.0707 0.475516 10.0295 0.396354C9.98824 0.317193 9.92624 0.25091 9.85021 0.204709C9.77418 0.158507 9.68701 0.134155 9.59819 0.134295Z" fill="#898989"/>
</svg>
